<svg width="41" height="40" viewBox="0 0 41 40" fill="none" xmlns="http://www.w3.org/2000/svg">
<path d="M37.9651 9.56568C36.0807 6.54426 33.4188 4.19141 29.9926 2.51999C26.5795 0.835712 22.6526 0 18.238 0H6.79973L10.4631 4.7957H18.6202C22.0069 4.7957 24.985 5.4257 27.5547 6.67284C30.1112 7.93283 32.101 9.87425 33.4979 12.1371C34.8815 14.4128 35.58 17.0228 35.58 20.0056C35.58 22.9756 34.8815 25.5856 33.4979 27.8613C32.101 30.1242 30.1112 31.9499 27.5547 33.2099C24.985 34.4699 22.0069 35.087 18.6202 35.087H5.20522V4.7957L1.58133 0H0V39.9984H18.238C22.6526 39.9984 26.5795 39.1627 29.9926 37.4784C33.4188 35.807 36.0807 33.4542 37.9651 30.4328C39.8627 27.3985 40.8115 23.9271 40.8115 20.0056C40.8115 16.0714 39.8627 12.6 37.9651 9.56568Z" fill="black"/>
</svg>
