<svg width="59" height="57" viewBox="0 0 59 57" fill="none" xmlns="http://www.w3.org/2000/svg">
<path d="M56.7839 1.29279C56.7784 1.63678 57.0557 1.91974 57.3996 1.92529C57.7436 1.93083 58.0265 1.65342 58.032 1.30944C58.0376 0.965455 57.7602 0.68251 57.4163 0.676962C57.0668 0.671414 56.7839 0.948811 56.7839 1.29279Z" fill="#005840"/>
<path d="M51.1705 1.22616C51.1649 1.57014 51.4423 1.85309 51.7862 1.85864C52.1301 1.86418 52.413 1.58679 52.4185 1.2428C52.4241 0.898821 52.1467 0.615859 51.8028 0.610311C51.4533 0.604763 51.176 0.882177 51.1705 1.22616Z" fill="#005840"/>
<path d="M45.557 1.15963C45.5514 1.50361 45.8288 1.78656 46.1727 1.79211C46.5166 1.79766 46.7995 1.52026 46.805 1.17628C46.8106 0.832293 46.5332 0.549331 46.1893 0.543783C45.8454 0.538235 45.5625 0.815649 45.557 1.15963Z" fill="#005840"/>
<path d="M39.949 1.0931C39.9435 1.43709 40.2209 1.72003 40.5648 1.72558C40.9087 1.73113 41.1915 1.45373 41.1971 1.10975C41.2026 0.765764 40.9253 0.482803 40.5814 0.477255C40.2319 0.471707 39.949 0.749121 39.949 1.0931Z" fill="#005840"/>
<path d="M34.3355 1.021C34.33 1.36498 34.6073 1.64793 34.9512 1.65348C35.2951 1.65902 35.578 1.38163 35.5836 1.03764C35.5891 0.693661 35.3118 0.410699 34.9679 0.405151C34.624 0.405151 34.3411 0.677018 34.3355 1.021Z" fill="#005840"/>
<path d="M28.7221 0.95431C28.7165 1.29829 28.9938 1.58124 29.3378 1.58679C29.6817 1.59233 29.9646 1.31494 29.9701 0.970953C29.9757 0.626971 29.6983 0.344009 29.3544 0.338461C29.0105 0.332913 28.7276 0.610327 28.7221 0.95431Z" fill="#005840"/>
<path d="M23.1141 0.887764C23.1086 1.23175 23.3859 1.51471 23.7298 1.52026C24.0737 1.52581 24.3566 1.24839 24.3622 0.904408C24.3677 0.560425 24.0904 0.27748 23.7465 0.271932C23.397 0.266384 23.1141 0.543782 23.1141 0.887764Z" fill="#005840"/>
<path d="M17.5006 0.821236C17.4951 1.16522 17.7724 1.44818 18.1163 1.45373C18.4603 1.45928 18.7432 1.18186 18.7487 0.83788C18.7543 0.493897 18.4769 0.210952 18.133 0.205404C17.7835 0.199856 17.5062 0.477253 17.5006 0.821236Z" fill="#005840"/>
<path d="M11.8871 0.749011C11.8816 1.09299 12.1589 1.37596 12.5028 1.3815C12.8467 1.38705 13.1296 1.10964 13.1352 0.765654C13.1407 0.421672 12.8634 0.138727 12.5195 0.133179C12.1756 0.133179 11.8927 0.405028 11.8871 0.749011Z" fill="#005840"/>
<path d="M6.27364 0.682482C6.26809 1.02647 6.54545 1.30943 6.88936 1.31498C7.23327 1.32052 7.51615 1.04311 7.5217 0.699126C7.52725 0.355143 7.24991 0.0721985 6.906 0.0666504C6.56209 0.0666504 6.27919 0.3385 6.27364 0.682482Z" fill="#005840"/>
<path d="M0.665716 0.615914C0.660169 0.959897 0.937507 1.24286 1.28142 1.24841C1.62533 1.25395 1.90823 0.97654 1.91377 0.632558C1.91932 0.288575 1.64197 0.00562991 1.29806 8.17972e-05C0.954147 -0.00546631 0.671263 0.271931 0.665716 0.615914Z" fill="#005840"/>
<path d="M56.7229 6.2805C56.7174 6.62449 56.9947 6.90745 57.3386 6.913C57.6826 6.91855 57.9654 6.64113 57.971 6.29715C57.9765 5.95317 57.6992 5.67022 57.3553 5.66467C57.0058 5.66467 56.7285 5.93652 56.7229 6.2805Z" fill="#005840"/>
<path d="M51.1094 6.21394C51.1039 6.55792 51.3813 6.84088 51.7252 6.84643C52.0691 6.85198 52.3519 6.57456 52.3575 6.23058C52.363 5.8866 52.0857 5.60365 51.7418 5.5981C51.3979 5.59256 51.115 5.86995 51.1094 6.21394Z" fill="#005840"/>
<path d="M45.4959 6.14741C45.4904 6.49139 45.7678 6.77435 46.1117 6.7799C46.4556 6.78545 46.7385 6.50803 46.744 6.16405C46.7496 5.82007 46.4722 5.53712 46.1283 5.53158C45.7844 5.52603 45.5015 5.80343 45.4959 6.14741Z" fill="#005840"/>
<path d="M39.888 6.08077C39.8825 6.42476 40.1598 6.7077 40.5037 6.71325C40.8476 6.7188 41.1305 6.4414 41.1361 6.09742C41.1416 5.75344 40.8643 5.47047 40.5204 5.46493C40.1709 5.45938 39.888 5.73679 39.888 6.08077Z" fill="#005840"/>
<path d="M34.2745 6.01425C34.269 6.35823 34.5463 6.64117 34.8902 6.64672C35.2341 6.65227 35.517 6.37487 35.5226 6.03089C35.5281 5.68691 35.2508 5.40395 34.9069 5.3984C34.563 5.39285 34.2801 5.67026 34.2745 6.01425Z" fill="#005840"/>
<path d="M28.661 5.9476C28.6555 6.29158 28.9328 6.57453 29.2767 6.58007C29.6207 6.58562 29.9036 6.30822 29.9091 5.96424C29.9147 5.62026 29.6373 5.3373 29.2934 5.33175C28.9495 5.3262 28.6666 5.59807 28.661 5.9476Z" fill="#005840"/>
<path d="M23.0531 5.87557C23.0476 6.21956 23.3249 6.5025 23.6688 6.50805C24.0127 6.5136 24.2956 6.2362 24.3012 5.89222C24.3067 5.54824 24.0294 5.26527 23.6854 5.25973C23.336 5.25418 23.0531 5.53159 23.0531 5.87557Z" fill="#005840"/>
<path d="M17.4396 5.80892C17.4341 6.15291 17.7114 6.43585 18.0553 6.4414C18.3993 6.44695 18.6822 6.16955 18.6877 5.82557C18.6932 5.48158 18.4159 5.19862 18.072 5.19307C17.7281 5.18753 17.4452 5.46494 17.4396 5.80892Z" fill="#005840"/>
<path d="M11.8261 5.74238C11.8206 6.08636 12.0979 6.36932 12.4418 6.37487C12.7858 6.38042 13.0686 6.10301 13.0742 5.75902C13.0797 5.41504 12.8024 5.13209 12.4585 5.12655C12.1146 5.121 11.8317 5.3984 11.8261 5.74238Z" fill="#005840"/>
<path d="M6.21819 5.67585C6.21264 6.01983 6.48998 6.3028 6.83389 6.30834C7.1778 6.31389 7.4607 6.03648 7.46625 5.6925C7.4718 5.34851 7.19444 5.06557 6.85053 5.06002C6.50108 5.05447 6.21819 5.32632 6.21819 5.67585Z" fill="#005840"/>
<path d="M0.604696 5.60362C0.599149 5.94761 0.876504 6.23057 1.22041 6.23612C1.56432 6.24167 1.84721 5.96425 1.85275 5.62027C1.8583 5.27629 1.58096 4.99334 1.23705 4.98779C0.893144 4.98779 0.610243 5.25964 0.604696 5.60362Z" fill="#005840"/>
<path d="M56.6619 11.2739C56.6564 11.6179 56.9337 11.9008 57.2776 11.9064C57.6215 11.9119 57.9044 11.6345 57.91 11.2905C57.9155 10.9465 57.6382 10.6636 57.2943 10.658C56.9504 10.6525 56.6675 10.9299 56.6619 11.2739Z" fill="#005840"/>
<path d="M51.0484 11.2072C51.0429 11.5512 51.3202 11.8342 51.6641 11.8397C52.008 11.8453 52.2909 11.5679 52.2965 11.2239C52.302 10.8799 52.0247 10.5969 51.6808 10.5914C51.3369 10.5858 51.054 10.8577 51.0484 11.2072Z" fill="#005840"/>
<path d="M45.4405 11.1351C45.4349 11.4791 45.7123 11.7621 46.0562 11.7676C46.4001 11.7732 46.683 11.4957 46.6886 11.1518C46.6941 10.8078 46.4168 10.5248 46.0729 10.5193C45.7234 10.5193 45.4405 10.7911 45.4405 11.1351Z" fill="#005840"/>
<path d="M39.827 11.0686C39.8215 11.4125 40.0988 11.6955 40.4427 11.701C40.7866 11.7066 41.0695 11.4292 41.0751 11.0852C41.0806 10.7412 40.8033 10.4583 40.4594 10.4527C40.1099 10.4472 39.8326 10.7246 39.827 11.0686Z" fill="#005840"/>
<path d="M34.2135 11.002C34.208 11.346 34.4853 11.629 34.8292 11.6345C35.1731 11.6401 35.456 11.3626 35.4616 11.0187C35.4671 10.6747 35.1898 10.3917 34.8459 10.3862C34.502 10.3806 34.2191 10.658 34.2135 11.002Z" fill="#005840"/>
<path d="M28.6001 10.9354C28.5945 11.2794 28.8718 11.5623 29.2158 11.5679C29.5597 11.5734 29.8426 11.296 29.8481 10.952C29.8537 10.608 29.5763 10.3251 29.2324 10.3195C28.8885 10.314 28.6056 10.5914 28.6001 10.9354Z" fill="#005840"/>
<path d="M22.9921 10.8633C22.9865 11.2073 23.2639 11.4902 23.6078 11.4958C23.9517 11.5013 24.2346 11.2239 24.2401 10.8799C24.2457 10.5359 23.9684 10.253 23.6244 10.2474C23.275 10.2474 22.9976 10.5193 22.9921 10.8633Z" fill="#005840"/>
<path d="M17.3786 10.7967C17.3731 11.1407 17.6504 11.4236 17.9943 11.4292C18.3382 11.4347 18.6211 11.1573 18.6267 10.8134C18.6322 10.4694 18.3549 10.1864 18.011 10.1809C17.6671 10.1753 17.3842 10.4527 17.3786 10.7967Z" fill="#005840"/>
<path d="M11.7651 10.7302C11.7596 11.0742 12.0369 11.3571 12.3808 11.3627C12.7247 11.3682 13.0076 11.0908 13.0132 10.7468C13.0187 10.4028 12.7414 10.1199 12.3975 10.1143C12.0536 10.1088 11.7707 10.3862 11.7651 10.7302Z" fill="#005840"/>
<path d="M6.15717 10.6635C6.15162 11.0075 6.42898 11.2905 6.77289 11.296C7.1168 11.3016 7.39968 11.0242 7.40523 10.6802C7.41078 10.3362 7.13344 10.0532 6.78953 10.0477C6.44007 10.0421 6.16272 10.3196 6.15717 10.6635Z" fill="#005840"/>
<path d="M0.543691 10.597C0.538144 10.941 0.815482 11.2239 1.15939 11.2295C1.5033 11.235 1.7862 10.9576 1.79175 10.6136C1.7973 10.2697 1.51994 9.98671 1.17603 9.98116C0.832123 9.97561 0.549238 10.253 0.543691 10.597Z" fill="#005840"/>
<path d="M56.6009 16.2616C56.5953 16.6055 56.8727 16.8885 57.2166 16.894C57.5605 16.8996 57.8434 16.6222 57.849 16.2782C57.8545 15.9342 57.5772 15.6513 57.2333 15.6457C56.8893 15.6402 56.6064 15.9176 56.6009 16.2616Z" fill="#005840"/>
<path d="M50.9874 16.195C50.9819 16.539 51.2592 16.822 51.6031 16.8275C51.947 16.8331 52.2299 16.5557 52.2355 16.2117C52.241 15.8677 51.9637 15.5847 51.6198 15.5792C51.2758 15.5736 50.9929 15.851 50.9874 16.195Z" fill="#005840"/>
<path d="M45.3795 16.1284C45.3739 16.4723 45.6513 16.7553 45.9952 16.7609C46.3391 16.7664 46.622 16.489 46.6275 16.145C46.6331 15.801 46.3557 15.5181 46.0118 15.5125C45.6623 15.507 45.3795 15.7844 45.3795 16.1284Z" fill="#005840"/>
<path d="M39.766 16.0618C39.7604 16.4058 40.0378 16.6888 40.3817 16.6943C40.7256 16.6943 41.0085 16.4225 41.0141 16.0785C41.0196 15.7345 40.7422 15.4515 40.3983 15.446C40.0544 15.4349 39.7715 15.7123 39.766 16.0618Z" fill="#005840"/>
<path d="M34.1525 15.9897C34.147 16.3337 34.4243 16.6166 34.7682 16.6222C35.1121 16.6277 35.395 16.3503 35.4006 16.0063C35.4061 15.6624 35.1287 15.3794 34.7848 15.3739C34.4409 15.3683 34.1581 15.6457 34.1525 15.9897Z" fill="#005840"/>
<path d="M28.5445 15.9232C28.539 16.2671 28.8164 16.5501 29.1603 16.5557C29.5042 16.5612 29.7871 16.2838 29.7926 15.9398C29.7982 15.5958 29.5208 15.3129 29.1769 15.3073C28.8274 15.3018 28.5445 15.5792 28.5445 15.9232Z" fill="#005840"/>
<path d="M22.9311 15.8565C22.9255 16.2005 23.2029 16.4835 23.5468 16.489C23.8907 16.4946 24.1736 16.2171 24.1791 15.8732C24.1847 15.5292 23.9073 15.2462 23.5634 15.2407C23.2195 15.2351 22.9366 15.5125 22.9311 15.8565Z" fill="#005840"/>
<path d="M17.3176 15.79C17.312 16.134 17.5894 16.4169 17.9333 16.4225C18.2772 16.428 18.5601 16.1506 18.5656 15.8066C18.5712 15.4627 18.2939 15.1797 17.9499 15.1742C17.606 15.1686 17.3231 15.446 17.3176 15.79Z" fill="#005840"/>
<path d="M11.7096 15.7179C11.7041 16.0619 11.9814 16.3448 12.3253 16.3504C12.6692 16.3559 12.9521 16.0785 12.9577 15.7345C12.9632 15.3905 12.6859 15.1076 12.342 15.1021C11.9925 15.1021 11.7096 15.3739 11.7096 15.7179Z" fill="#005840"/>
<path d="M6.09615 15.6513C6.0906 15.9953 6.36794 16.2783 6.71185 16.2838C7.05576 16.2894 7.33866 16.012 7.34421 15.668C7.34976 15.324 7.0724 15.041 6.72849 15.0355C6.38458 15.0299 6.1017 15.3073 6.09615 15.6513Z" fill="#005840"/>
<path d="M0.482656 15.5847C0.477109 15.9287 0.754464 16.2116 1.09837 16.2172C1.44228 16.2227 1.72517 15.9453 1.73071 15.6013C1.73626 15.2573 1.45892 14.9744 1.11501 14.9688C0.771104 14.9633 0.488203 15.2407 0.482656 15.5847Z" fill="#005840"/>
<path d="M56.5399 21.2494C56.5343 21.5934 56.8117 21.8763 57.1556 21.8819C57.4995 21.8874 57.7824 21.61 57.7879 21.266C57.7935 20.922 57.5162 20.6391 57.1722 20.6335C56.8283 20.6335 56.5454 20.9054 56.5399 21.2494Z" fill="#005840"/>
<path d="M50.9264 21.1828C50.9209 21.5268 51.1982 21.8098 51.5421 21.8153C51.886 21.8208 52.1689 21.5435 52.1745 21.1995C52.18 20.8555 51.9026 20.5725 51.5587 20.567C51.2148 20.5614 50.932 20.8388 50.9264 21.1828Z" fill="#005840"/>
<path d="M45.3184 21.1162C45.3129 21.4602 45.5903 21.7431 45.9342 21.7487C46.2781 21.7542 46.561 21.4768 46.5665 21.1328C46.572 20.7888 46.2947 20.5059 45.9508 20.5003C45.6013 20.4948 45.3184 20.7722 45.3184 21.1162Z" fill="#005840"/>
<path d="M39.705 21.0496C39.6994 21.3936 39.9768 21.6766 40.3207 21.6821C40.6646 21.6877 40.9475 21.4103 40.953 21.0663C40.9586 20.7223 40.6812 20.4393 40.3373 20.4338C39.9934 20.4283 39.7105 20.7001 39.705 21.0496Z" fill="#005840"/>
<path d="M34.0915 20.9775C34.0859 21.3215 34.3633 21.6045 34.7072 21.61C35.0511 21.6156 35.334 21.3382 35.3395 20.9942C35.3451 20.6502 35.0677 20.3672 34.7238 20.3617C34.3799 20.3617 34.097 20.6336 34.0915 20.9775Z" fill="#005840"/>
<path d="M28.4835 20.911C28.478 21.255 28.7553 21.5379 29.0992 21.5435C29.4432 21.549 29.7261 21.2716 29.7316 20.9276C29.7371 20.5836 29.4598 20.3007 29.1159 20.2951C28.7664 20.2896 28.4891 20.567 28.4835 20.911Z" fill="#005840"/>
<path d="M22.8701 20.8443C22.8645 21.1883 23.1419 21.4713 23.4858 21.4768C23.8297 21.4823 24.1126 21.2049 24.1181 20.861C24.1237 20.517 23.8463 20.234 23.5024 20.2285C23.1585 20.2229 22.8756 20.5003 22.8701 20.8443Z" fill="#005840"/>
<path d="M17.2566 20.7778C17.251 21.1218 17.5284 21.4047 17.8723 21.4103C18.2162 21.4158 18.4991 21.1384 18.5046 20.7944C18.5102 20.4504 18.2328 20.1675 17.8889 20.1619C17.545 20.1564 17.2621 20.4338 17.2566 20.7778Z" fill="#005840"/>
<path d="M11.6486 20.7111C11.6431 21.0551 11.9204 21.3381 12.2643 21.3436C12.6082 21.3492 12.8911 21.0718 12.8967 20.7278C12.9022 20.3838 12.6249 20.1008 12.281 20.0953C11.9371 20.0897 11.6542 20.3671 11.6486 20.7111Z" fill="#005840"/>
<path d="M6.03513 20.639C6.02958 20.983 6.30694 21.266 6.65085 21.2715C6.99476 21.2771 7.27764 20.9997 7.28319 20.6557C7.28874 20.3117 7.0114 20.0287 6.66749 20.0232C6.32358 20.0232 6.04068 20.295 6.03513 20.639Z" fill="#005840"/>
<path d="M0.421652 20.5725C0.416105 20.9164 0.693443 21.1994 1.03735 21.2049C1.38126 21.2105 1.66416 20.9331 1.66971 20.5891C1.67526 20.2451 1.3979 19.9622 1.05399 19.9566C0.710083 19.9511 0.427199 20.2285 0.421652 20.5725Z" fill="#005840"/>
<path d="M56.4789 26.2426C56.4733 26.5866 56.7507 26.8696 57.0946 26.8751C57.4385 26.8807 57.7214 26.6032 57.7269 26.2593C57.7325 25.9153 57.4551 25.6323 57.1112 25.6268C56.7673 25.6212 56.4844 25.8986 56.4789 26.2426Z" fill="#005840"/>
<path d="M50.8709 26.1705C50.8654 26.5145 51.1428 26.7974 51.4867 26.803C51.8306 26.8085 52.1134 26.5311 52.119 26.1871C52.1245 25.8431 51.8472 25.5602 51.5033 25.5546C51.1538 25.5491 50.8709 25.8265 50.8709 26.1705Z" fill="#005840"/>
<path d="M45.2574 26.104C45.2519 26.4479 45.5292 26.7309 45.8731 26.7364C46.217 26.742 46.4999 26.4646 46.5055 26.1206C46.511 25.7766 46.2337 25.4937 45.8898 25.4881C45.5459 25.4826 45.263 25.76 45.2574 26.104Z" fill="#005840"/>
<path d="M39.644 26.0373C39.6384 26.3813 39.9157 26.6642 40.2597 26.6698C40.6036 26.6753 40.8865 26.3979 40.892 26.054C40.8976 25.71 40.6202 25.427 40.2763 25.4215C39.9324 25.4159 39.6495 25.6933 39.644 26.0373Z" fill="#005840"/>
<path d="M34.036 25.9708C34.0305 26.3148 34.3078 26.5977 34.6517 26.6033C34.9956 26.6088 35.2785 26.3314 35.2841 25.9874C35.2896 25.6435 35.0123 25.3605 34.6684 25.3549C34.3189 25.3494 34.036 25.6268 34.036 25.9708Z" fill="#005840"/>
<path d="M28.4225 25.9043C28.417 26.2482 28.6943 26.5312 29.0382 26.5367C29.3821 26.5423 29.665 26.2649 29.6706 25.9209C29.6761 25.5769 29.3988 25.294 29.0549 25.2884C28.711 25.2829 28.4281 25.5547 28.4225 25.9043Z" fill="#005840"/>
<path d="M22.8091 25.8321C22.8035 26.1761 23.0808 26.459 23.4248 26.4646C23.7687 26.4701 24.0516 26.1927 24.0571 25.8488C24.0627 25.5048 23.7853 25.2218 23.4414 25.2163C23.0975 25.2107 22.8146 25.4881 22.8091 25.8321Z" fill="#005840"/>
<path d="M17.2011 25.7655C17.1956 26.1094 17.4729 26.3924 17.8168 26.3979C18.1607 26.4035 18.4436 26.1261 18.4492 25.7821C18.4547 25.4381 18.1774 25.1552 17.8335 25.1496C17.484 25.1441 17.2011 25.4215 17.2011 25.7655Z" fill="#005840"/>
<path d="M11.5876 25.6989C11.5821 26.0429 11.8594 26.3259 12.2033 26.3314C12.5472 26.337 12.8301 26.0595 12.8357 25.7156C12.8412 25.3716 12.5639 25.0886 12.22 25.0831C11.8761 25.0775 11.5932 25.3549 11.5876 25.6989Z" fill="#005840"/>
<path d="M5.97414 25.6324C5.96859 25.9764 6.24593 26.2593 6.58984 26.2649C6.93375 26.2704 7.21665 25.993 7.2222 25.649C7.22775 25.3051 6.95039 25.0221 6.60648 25.0166C6.26257 25.011 5.97969 25.2829 5.97414 25.6324Z" fill="#005840"/>
<path d="M0.366186 25.5657C0.360639 25.9097 0.637994 26.1927 0.981903 26.1982C1.32581 26.2038 1.6087 25.9264 1.61424 25.5824C1.61979 25.2384 1.34245 24.9555 0.998543 24.9499C0.649087 24.9444 0.366186 25.2162 0.366186 25.5657Z" fill="#005840"/>
<path d="M56.4178 31.2304C56.4123 31.5744 56.6897 31.8574 57.0336 31.8629C57.3775 31.8685 57.6603 31.591 57.6659 31.2471C57.6714 30.9031 57.3941 30.6201 57.0502 30.6146C56.7063 30.609 56.4234 30.8864 56.4178 31.2304Z" fill="#005840"/>
<path d="M50.8099 31.1582C50.8043 31.5022 51.0817 31.7851 51.4256 31.7907C51.7695 31.7962 52.0524 31.5188 52.058 31.1749C52.0635 30.8309 51.7862 30.5479 51.4423 30.5424C51.0928 30.5424 50.8154 30.8142 50.8099 31.1582Z" fill="#005840"/>
<path d="M45.1964 31.0917C45.1909 31.4356 45.4682 31.7186 45.8121 31.7242C46.156 31.7297 46.4389 31.4523 46.4445 31.1083C46.45 30.7643 46.1727 30.4814 45.8288 30.4758C45.4849 30.4758 45.202 30.7477 45.1964 31.0917Z" fill="#005840"/>
<path d="M39.5829 31.0251C39.5774 31.3691 39.8547 31.652 40.1986 31.6576C40.5425 31.6631 40.8254 31.3857 40.831 31.0417C40.8365 30.6978 40.5592 30.4148 40.2153 30.4093C39.8714 30.4037 39.5885 30.6811 39.5829 31.0251Z" fill="#005840"/>
<path d="M33.975 30.9586C33.9694 31.3025 34.2468 31.5855 34.5907 31.5911C34.9346 31.5966 35.2175 31.3192 35.2231 30.9752C35.2286 30.6312 34.9512 30.3483 34.6073 30.3427C34.2634 30.3372 33.975 30.6146 33.975 30.9586Z" fill="#005840"/>
<path d="M28.3615 30.8919C28.356 31.2359 28.6333 31.5189 28.9772 31.5244C29.3211 31.53 29.604 31.2526 29.6096 30.9086C29.6151 30.5646 29.3378 30.2816 28.9939 30.2761C28.6499 30.2705 28.3671 30.5479 28.3615 30.8919Z" fill="#005840"/>
<path d="M22.748 30.8254C22.7425 31.1694 23.0198 31.4523 23.3637 31.4579C23.7076 31.4634 23.9905 31.186 23.9961 30.842C24.0016 30.4981 23.7243 30.2151 23.3804 30.2096C23.0365 30.204 22.7536 30.4814 22.748 30.8254Z" fill="#005840"/>
<path d="M17.1401 30.7533C17.1345 31.0973 17.4119 31.3802 17.7558 31.3858C18.0997 31.3913 18.3826 31.1139 18.3881 30.7699C18.3937 30.426 18.1163 30.143 17.7724 30.1375C17.423 30.1375 17.1456 30.4093 17.1401 30.7533Z" fill="#005840"/>
<path d="M11.5266 30.6867C11.521 31.0307 11.7984 31.3137 12.1423 31.3192C12.4862 31.3248 12.7691 31.0474 12.7746 30.7034C12.7802 30.3594 12.5028 30.0764 12.1589 30.0709C11.815 30.0653 11.5321 30.3427 11.5266 30.6867Z" fill="#005840"/>
<path d="M5.91309 30.6201C5.90754 30.9641 6.1849 31.247 6.52881 31.2526C6.87272 31.2581 7.1556 30.9807 7.16115 30.6367C7.1667 30.2927 6.88936 30.0098 6.54545 30.0042C6.20154 29.9987 5.91864 30.2761 5.91309 30.6201Z" fill="#005840"/>
<path d="M0.305166 30.5535C0.299619 30.8975 0.576957 31.1805 0.920866 31.186C1.26478 31.1916 1.54768 30.9142 1.55322 30.5702C1.55877 30.2262 1.28142 29.9433 0.937506 29.9377C0.58805 29.9322 0.305166 30.2096 0.305166 30.5535Z" fill="#005840"/>
<path d="M56.3624 36.2181C56.3568 36.5621 56.6342 36.845 56.9781 36.8506C57.322 36.8561 57.6049 36.5787 57.6104 36.2347C57.616 35.8908 57.3387 35.6078 56.9947 35.6023C56.6453 35.5967 56.3624 35.8741 56.3624 36.2181Z" fill="#005840"/>
<path d="M50.7489 36.1516C50.7433 36.4956 51.0207 36.7785 51.3646 36.7841C51.7085 36.7896 51.9914 36.5122 51.9969 36.1682C52.0025 35.8242 51.7252 35.5413 51.3812 35.5357C51.0373 35.5302 50.7544 35.8076 50.7489 36.1516Z" fill="#005840"/>
<path d="M45.1354 36.085C45.1299 36.429 45.4072 36.712 45.7511 36.7175C46.095 36.7231 46.3779 36.4457 46.3835 36.1017C46.389 35.7577 46.1116 35.4747 45.7677 35.4692C45.4238 35.4636 45.141 35.741 45.1354 36.085Z" fill="#005840"/>
<path d="M39.5275 36.0128C39.5219 36.3568 39.7993 36.6397 40.1432 36.6453C40.4871 36.6508 40.77 36.3734 40.7755 36.0295C40.7811 35.6855 40.5037 35.4025 40.1598 35.397C39.8104 35.397 39.5275 35.6688 39.5275 36.0128Z" fill="#005840"/>
<path d="M33.914 35.9462C33.9084 36.2902 34.1858 36.5732 34.5297 36.5787C34.8736 36.5843 35.1565 36.3069 35.162 35.9629C35.1676 35.6189 34.8902 35.336 34.5463 35.3304C34.2024 35.3249 33.9195 35.6023 33.914 35.9462Z" fill="#005840"/>
<path d="M28.3005 35.8797C28.2949 36.2237 28.5723 36.5067 28.9162 36.5122C29.2601 36.5177 29.543 36.2403 29.5486 35.8964C29.5541 35.5524 29.2768 35.2694 28.9329 35.2639C28.5889 35.2583 28.306 35.5357 28.3005 35.8797Z" fill="#005840"/>
<path d="M22.6926 35.8132C22.687 36.1572 22.9643 36.4401 23.3083 36.4457C23.6522 36.4512 23.9351 36.1738 23.9406 35.8298C23.9462 35.4858 23.6688 35.2029 23.3249 35.1973C22.9755 35.1918 22.6926 35.4692 22.6926 35.8132Z" fill="#005840"/>
<path d="M17.0791 35.7465C17.0735 36.0905 17.3509 36.3735 17.6948 36.379C18.0387 36.3846 18.3216 36.1072 18.3271 35.7632C18.3327 35.4192 18.0553 35.1362 17.7114 35.1307C17.3675 35.1252 17.0846 35.397 17.0791 35.7465Z" fill="#005840"/>
<path d="M11.4656 35.6744C11.46 36.0184 11.7374 36.3014 12.0813 36.3069C12.4252 36.3125 12.7081 36.0351 12.7136 35.6911C12.7192 35.3471 12.4418 35.0641 12.0979 35.0586C11.754 35.0586 11.4711 35.3304 11.4656 35.6744Z" fill="#005840"/>
<path d="M5.85763 35.6079C5.85208 35.9519 6.12943 36.2348 6.47334 36.2403C6.81725 36.2459 7.10014 35.9685 7.10568 35.6245C7.11123 35.2805 6.83389 34.9976 6.48998 34.992C6.14053 34.9865 5.85763 35.2639 5.85763 35.6079Z" fill="#005840"/>
<path d="M0.244146 35.5412C0.238599 35.8852 0.515954 36.1682 0.859863 36.1737C1.20377 36.1792 1.48666 35.9019 1.4922 35.5579C1.49775 35.2139 1.22041 34.9309 0.876503 34.9254C0.532594 34.9198 0.249693 35.1972 0.244146 35.5412Z" fill="#005840"/>
<path d="M56.3014 41.2059C56.2958 41.5499 56.5732 41.8328 56.9171 41.8384C57.261 41.8439 57.5439 41.5665 57.5494 41.2225C57.555 40.8785 57.2776 40.5956 56.9337 40.59C56.5898 40.5845 56.3014 40.8619 56.3014 41.2059Z" fill="#005840"/>
<path d="M50.6879 41.1394C50.6823 41.4834 50.9597 41.7663 51.3036 41.7718C51.6475 41.7774 51.9304 41.5 51.9359 41.156C51.9415 40.812 51.6641 40.5291 51.3202 40.5235C50.9763 40.518 50.6934 40.7954 50.6879 41.1394Z" fill="#005840"/>
<path d="M45.0744 41.0727C45.0688 41.4167 45.3462 41.6996 45.6901 41.7052C46.034 41.7107 46.3169 41.4333 46.3224 41.0894C46.328 40.7454 46.0506 40.4624 45.7067 40.4569C45.3628 40.4513 45.0799 40.7287 45.0744 41.0727Z" fill="#005840"/>
<path d="M39.4665 41.0062C39.4609 41.3502 39.7382 41.6331 40.0822 41.6387C40.4261 41.6442 40.709 41.3668 40.7145 41.0228C40.7201 40.6789 40.4427 40.3959 40.0988 40.3903C39.7494 40.3848 39.472 40.6622 39.4665 41.0062Z" fill="#005840"/>
<path d="M33.853 40.934C33.8474 41.2779 34.1247 41.5609 34.4687 41.5664C34.8126 41.572 35.0955 41.2946 35.101 40.9506C35.1066 40.6066 34.8292 40.3237 34.4853 40.3181C34.1414 40.3181 33.8585 40.5955 33.853 40.934Z" fill="#005840"/>
<path d="M28.2395 40.8675C28.2339 41.2115 28.5113 41.4944 28.8552 41.5C29.1991 41.5055 29.482 41.2281 29.4875 40.8842C29.4931 40.5402 29.2157 40.2572 28.8718 40.2517C28.5279 40.2461 28.245 40.5235 28.2395 40.8675Z" fill="#005840"/>
<path d="M22.6316 40.8009C22.626 41.1448 22.9033 41.4278 23.2473 41.4333C23.5912 41.4389 23.8741 41.1615 23.8796 40.8175C23.8852 40.4735 23.6078 40.1906 23.2639 40.185C22.9145 40.1795 22.6316 40.4569 22.6316 40.8009Z" fill="#005840"/>
<path d="M17.0181 40.7343C17.0125 41.0783 17.2899 41.3613 17.6338 41.3668C17.9777 41.3724 18.2606 41.0949 18.2661 40.751C18.2717 40.407 17.9943 40.124 17.6504 40.1185C17.3065 40.1129 17.0236 40.3903 17.0181 40.7343Z" fill="#005840"/>
<path d="M11.4045 40.6677C11.399 41.0117 11.6764 41.2946 12.0203 41.3002C12.3642 41.3057 12.6471 41.0283 12.6526 40.6843C12.6582 40.3403 12.3808 40.0574 12.0369 40.0518C11.693 40.0463 11.4101 40.3237 11.4045 40.6677Z" fill="#005840"/>
<path d="M5.79662 40.6012C5.79107 40.9451 6.06841 41.2281 6.41232 41.2336C6.75623 41.2392 7.03913 40.9618 7.04468 40.6178C7.05023 40.2738 6.77287 39.9909 6.42896 39.9853C6.07951 39.9798 5.79662 40.2516 5.79662 40.6012Z" fill="#005840"/>
<path d="M0.183141 40.529C0.177595 40.873 0.454933 41.1559 0.798842 41.1615C1.14275 41.167 1.42565 40.8896 1.4312 40.5456C1.43675 40.2017 1.15939 39.9187 0.815482 39.9132C0.471573 39.9076 0.188688 40.185 0.183141 40.529Z" fill="#005840"/>
<path d="M56.2403 46.1992C56.2348 46.5431 56.5122 46.8261 56.8561 46.8317C57.2 46.8372 57.4828 46.5598 57.4884 46.2158C57.4939 45.8718 57.2166 45.5889 56.8727 45.5833C56.5288 45.5778 56.2459 45.8552 56.2403 46.1992Z" fill="#005840"/>
<path d="M50.6269 46.1327C50.6213 46.4766 50.8987 46.7596 51.2426 46.7651C51.5865 46.7651 51.8694 46.4933 51.8749 46.1493C51.8805 45.8053 51.6031 45.5223 51.2592 45.5168C50.9153 45.5057 50.6324 45.7831 50.6269 46.1327Z" fill="#005840"/>
<path d="M45.0189 46.0605C45.0134 46.4045 45.2907 46.6874 45.6346 46.693C45.9785 46.6985 46.2614 46.4211 46.267 46.0771C46.2725 45.7332 45.9952 45.4502 45.6513 45.4447C45.3018 45.4391 45.0189 45.7165 45.0189 46.0605Z" fill="#005840"/>
<path d="M39.4054 45.9939C39.3999 46.3378 39.6772 46.6208 40.0211 46.6263C40.3651 46.6319 40.648 46.3545 40.6535 46.0105C40.6591 45.6665 40.3817 45.3836 40.0378 45.378C39.6939 45.3725 39.411 45.6499 39.4054 45.9939Z" fill="#005840"/>
<path d="M33.792 45.9273C33.7864 46.2713 34.0638 46.5543 34.4077 46.5598C34.7516 46.5654 35.0345 46.288 35.04 45.944C35.0456 45.6 34.7682 45.317 34.4243 45.3115C34.0804 45.3059 33.7975 45.5833 33.792 45.9273Z" fill="#005840"/>
<path d="M28.184 45.8608C28.1785 46.2048 28.4558 46.4877 28.7997 46.4933C29.1437 46.4988 29.4266 46.2214 29.4321 45.8774C29.4376 45.5335 29.1603 45.2505 28.8164 45.245C28.4669 45.2394 28.184 45.5168 28.184 45.8608Z" fill="#005840"/>
<path d="M22.5705 45.7886C22.565 46.1326 22.8423 46.4155 23.1862 46.4211C23.5302 46.4266 23.8131 46.1492 23.8186 45.8052C23.8242 45.4612 23.5468 45.1783 23.2029 45.1727C22.8534 45.1727 22.5761 45.4446 22.5705 45.7886Z" fill="#005840"/>
<path d="M16.9571 45.722C16.9515 46.066 17.2289 46.3489 17.5728 46.3545C17.9167 46.36 18.1996 46.0826 18.2051 45.7387C18.2107 45.3947 17.9333 45.1117 17.5894 45.1062C17.2455 45.1006 16.9626 45.378 16.9571 45.722Z" fill="#005840"/>
<path d="M11.3436 45.6555C11.338 45.9994 11.6153 46.2824 11.9593 46.288C12.3032 46.2935 12.5861 46.0161 12.5916 45.6721C12.5972 45.3281 12.3198 45.0452 11.9759 45.0396C11.632 45.0341 11.3491 45.3115 11.3436 45.6555Z" fill="#005840"/>
<path d="M5.7356 45.5889C5.73005 45.9329 6.00741 46.2159 6.35132 46.2214C6.69523 46.227 6.97811 45.9496 6.98366 45.6056C6.98921 45.2616 6.71187 44.9787 6.36796 44.9731C6.02405 44.9676 5.74115 45.245 5.7356 45.5889Z" fill="#005840"/>
<path d="M0.122122 45.5223C0.116575 45.8663 0.39393 46.1492 0.737839 46.1548C1.08175 46.1603 1.36463 45.8829 1.37018 45.5389C1.37573 45.1949 1.09839 44.912 0.754479 44.9065C0.41057 44.9009 0.127668 45.1728 0.122122 45.5223Z" fill="#005840"/>
<path d="M56.1793 51.187C56.1738 51.5309 56.4511 51.8139 56.795 51.8195C57.1389 51.825 57.4218 51.5476 57.4274 51.2036C57.4329 50.8596 57.1556 50.5767 56.8117 50.5711C56.4678 50.5656 56.1849 50.843 56.1793 51.187Z" fill="#005840"/>
<path d="M50.5658 51.1203C50.5603 51.4643 50.8376 51.7473 51.1815 51.7528C51.5254 51.7583 51.8083 51.4809 51.8139 51.137C51.8194 50.793 51.5421 50.51 51.1982 50.5045C50.8543 50.4989 50.5714 50.7763 50.5658 51.1203Z" fill="#005840"/>
<path d="M44.9579 51.0482C44.9524 51.3922 45.2297 51.6751 45.5736 51.6807C45.9175 51.6862 46.2004 51.4088 46.206 51.0648C46.2115 50.7209 45.9342 50.4379 45.5903 50.4324C45.2408 50.4324 44.9579 50.7042 44.9579 51.0482Z" fill="#005840"/>
<path d="M39.3444 50.9816C39.3389 51.3256 39.6162 51.6086 39.9601 51.6141C40.304 51.6197 40.5869 51.3423 40.5925 50.9983C40.598 50.6543 40.3207 50.3714 39.9768 50.3658C39.6329 50.3603 39.35 50.6377 39.3444 50.9816Z" fill="#005840"/>
<path d="M33.7309 50.9151C33.7254 51.2591 34.0027 51.5421 34.3466 51.5476C34.6906 51.5531 34.9735 51.2757 34.979 50.9318C34.9846 50.5878 34.7072 50.3048 34.3633 50.2993C34.0194 50.2937 33.7365 50.5711 33.7309 50.9151Z" fill="#005840"/>
<path d="M28.123 50.8485C28.1174 51.1925 28.3948 51.4754 28.7387 51.481C29.0826 51.4865 29.3655 51.2091 29.371 50.8651C29.3766 50.5211 29.0992 50.2382 28.7553 50.2326C28.4059 50.2271 28.123 50.5045 28.123 50.8485Z" fill="#005840"/>
<path d="M22.5095 50.7819C22.5039 51.1259 22.7813 51.4089 23.1252 51.4144C23.4691 51.42 23.752 51.1426 23.7576 50.7986C23.7631 50.4546 23.4858 50.1716 23.1419 50.1661C22.7979 50.1606 22.515 50.4324 22.5095 50.7819Z" fill="#005840"/>
<path d="M16.896 50.7098C16.8905 51.0538 17.1678 51.3367 17.5118 51.3423C17.8557 51.3478 18.1385 51.0704 18.1441 50.7264C18.1496 50.3825 17.8723 50.0995 17.5284 50.094C17.1845 50.0884 16.9016 50.3658 16.896 50.7098Z" fill="#005840"/>
<path d="M11.2881 50.6433C11.2825 50.9873 11.5599 51.2702 11.9038 51.2758C12.2477 51.2813 12.5306 51.0039 12.5361 50.6599C12.5417 50.3159 12.2643 50.033 11.9204 50.0274C11.571 50.0219 11.2881 50.2993 11.2881 50.6433Z" fill="#005840"/>
<path d="M5.67458 50.5766C5.66903 50.9206 5.94637 51.2036 6.29028 51.2091C6.63419 51.2146 6.91709 50.9373 6.92264 50.5933C6.92819 50.2493 6.65083 49.9663 6.30692 49.9608C5.96301 49.9552 5.68013 50.2326 5.67458 50.5766Z" fill="#005840"/>
<path d="M0.0611017 50.5101C0.0555548 50.8541 0.332893 51.137 0.676802 51.1426C1.02071 51.1481 1.30361 50.8707 1.30916 50.5267C1.31471 50.1827 1.03735 49.8998 0.693442 49.8942C0.349533 49.8887 0.0666486 50.1661 0.0611017 50.5101Z" fill="#005840"/>
<path d="M56.1183 56.1746C56.1128 56.5186 56.3901 56.8016 56.734 56.8071C57.0779 56.8127 57.3608 56.5353 57.3664 56.1913C57.3719 55.8473 57.0946 55.5643 56.7507 55.5588C56.4068 55.5532 56.1239 55.8307 56.1183 56.1746Z" fill="#005840"/>
<path d="M50.5104 56.1081C50.5048 56.4521 50.7822 56.735 51.1261 56.7406C51.47 56.7461 51.7529 56.4687 51.7584 56.1248C51.764 55.7808 51.4866 55.4978 51.1427 55.4923C50.7932 55.4867 50.5104 55.7641 50.5104 56.1081Z" fill="#005840"/>
<path d="M44.8969 56.0416C44.8914 56.3856 45.1687 56.6685 45.5126 56.6741C45.8565 56.6741 46.1394 56.4022 46.145 56.0582C46.1505 55.7142 45.8731 55.4313 45.5292 55.4257C45.1798 55.4202 44.9024 55.6976 44.8969 56.0416Z" fill="#005840"/>
<path d="M39.2834 55.9749C39.2779 56.3189 39.5552 56.6019 39.8991 56.6074C40.243 56.613 40.5259 56.3355 40.5315 55.9916C40.537 55.6476 40.2597 55.3646 39.9157 55.3591C39.5718 55.3535 39.289 55.6309 39.2834 55.9749Z" fill="#005840"/>
<path d="M33.6699 55.9028C33.6644 56.2468 33.9417 56.5298 34.2856 56.5353C34.6296 56.5409 34.9124 56.2634 34.918 55.9195C34.9235 55.5755 34.6462 55.2925 34.3023 55.287C33.9584 55.287 33.6755 55.5588 33.6699 55.9028Z" fill="#005840"/>
<path d="M28.062 55.8363C28.0564 56.1802 28.3338 56.4632 28.6777 56.4687C29.0216 56.4743 29.3045 56.1969 29.31 55.8529C29.3156 55.5089 29.0382 55.226 28.6943 55.2204C28.3504 55.2149 28.0675 55.4923 28.062 55.8363Z" fill="#005840"/>
<path d="M22.4485 55.7696C22.4429 56.1136 22.7203 56.3965 23.0642 56.4021C23.4081 56.4076 23.691 56.1302 23.6965 55.7862C23.7021 55.4423 23.4248 55.1593 23.0808 55.1538C22.7369 55.1482 22.454 55.4256 22.4485 55.7696Z" fill="#005840"/>
<path d="M16.8406 55.7031C16.835 56.0471 17.1124 56.33 17.4563 56.3356C17.8002 56.3411 18.0831 56.0637 18.0886 55.7197C18.0942 55.3757 17.8168 55.0928 17.4729 55.0872C17.1235 55.0817 16.8406 55.3591 16.8406 55.7031Z" fill="#005840"/>
<path d="M11.2271 55.631C11.2215 55.975 11.4989 56.2579 11.8428 56.2635C12.1867 56.269 12.4696 55.9916 12.4751 55.6476C12.4807 55.3036 12.2033 55.0207 11.8594 55.0151C11.51 55.0151 11.2326 55.287 11.2271 55.631Z" fill="#005840"/>
<path d="M5.61356 55.5644C5.60801 55.9084 5.88537 56.1913 6.22928 56.1969C6.57319 56.2024 6.85607 55.925 6.86162 55.5811C6.86717 55.2371 6.58983 54.9541 6.24592 54.9486C5.90201 54.943 5.61911 55.2204 5.61356 55.5644Z" fill="#005840"/>
<path d="M8.17748e-05 55.4978C-0.00546515 55.8417 0.27189 56.1247 0.615799 56.1302C0.959708 56.1358 1.24259 55.8584 1.24814 55.5144C1.25369 55.1704 0.976348 54.8875 0.632439 54.8819C0.28853 54.8764 0.0056287 55.1538 8.17748e-05 55.4978Z" fill="#005840"/>
</svg>
