<?xml version="1.0" encoding="UTF-8"?>
<!DOCTYPE svg PUBLIC "-//W3C//DTD SVG 1.1//EN" "http://www.w3.org/Graphics/SVG/1.1/DTD/svg11.dtd">
<!-- Creator: CorelDRAW X7 -->
<svg xmlns="http://www.w3.org/2000/svg" xml:space="preserve" width="145.47mm" height="31.0621mm" version="1.1" shape-rendering="geometricPrecision" text-rendering="geometricPrecision" image-rendering="optimizeQuality" fill-rule="evenodd" clip-rule="evenodd" viewBox="0 0 14570 3111" xmlns:xlink="http://www.w3.org/1999/xlink">
 <g id="Слой_x0020_1">
  <metadata id="CorelCorpID_0Corel-Layer"/>
  <path fill="#00000" fill-rule="nonzero" d="M4551 1320c82,0 154,-16 217,-46 62,-33 111,-79 144,-134 33,-59 49,-125 49,-204 0,-78 -16,-144 -49,-203 -33,-59 -82,-105 -144,-135 -63,-29 -135,-46 -217,-46l-262 0 0 771 262 -3 0 0zm-472 -948l482 0c121,0 226,23 318,69 92,46 164,111 217,197 52,85 78,183 78,295 0,112 -26,210 -78,295 -53,86 -125,151 -217,197 -92,46 -200,69 -318,69l-482 0 0 -1122z"/>
  <polygon fill="#00000" fill-rule="nonzero" points="7717,549 7346,549 7346,1497 7139,1497 7139,549 6769,549 6769,372 7717,372 "/>
  <path fill="#00000" fill-rule="nonzero" d="M8750 1281c43,-36 66,-92 66,-164 0,-138 -86,-204 -253,-204l-269 0 0 424 269 0c82,0 144,-20 187,-56zm167 -437c73,63 109,151 109,269 0,125 -40,220 -118,286 -79,65 -191,98 -335,98l-482 0 0 -1125 203 0 0 381 312 0c138,0 239,32 311,91z"/>
  <path fill="#00000" fill-rule="nonzero" d="M11371 1281c59,-33 108,-82 141,-141 33,-63 53,-128 53,-204 0,-75 -17,-141 -53,-203 -33,-62 -82,-108 -141,-141 -59,-33 -128,-49 -203,-49 -76,0 -141,16 -204,49 -59,33 -108,82 -141,141 -32,62 -52,128 -52,203 0,76 16,141 52,204 33,62 82,108 141,141 59,33 128,49 204,49 75,0 144,-16 203,-49zm-512 157c-91,-49 -164,-118 -216,-206 -53,-89 -79,-187 -79,-296 0,-108 26,-206 79,-295 52,-89 125,-157 216,-207 92,-49 197,-75 312,-75 115,0 217,26 312,75 92,50 164,118 216,207 53,89 79,187 79,295 0,109 -26,210 -79,296 -52,88 -124,157 -216,206 -92,49 -197,76 -312,76 -115,0 -220,-27 -312,-76z"/>
  <path fill="#00000" fill-rule="nonzero" d="M12857 1169c0,-108 -72,-164 -220,-164l-321 0 0 332 321 0c148,0 220,-56 220,-168zm-541 -315l279 0c69,0 118,-13 154,-39 36,-26 52,-66 52,-118 0,-53 -16,-92 -52,-122 -36,-26 -85,-42 -154,-42l-279 0 0 321zm695 158c36,46 56,105 56,174 0,98 -36,173 -108,229 -72,53 -177,82 -315,82l-531 0 0 -1125 501 0c125,0 224,26 296,76 69,49 105,121 105,213 0,59 -13,108 -43,154 -29,43 -69,75 -121,98 69,20 124,53 160,99z"/>
  <path fill="#00000" fill-rule="nonzero" d="M14163 1281c59,-33 108,-82 141,-141 33,-63 52,-128 52,-204 0,-75 -16,-141 -52,-203 -33,-62 -82,-108 -141,-141 -59,-33 -128,-49 -204,-49 -75,0 -141,16 -203,49 -59,33 -108,82 -141,141 -33,62 -52,128 -52,203 0,76 16,141 52,204 33,62 82,108 141,141 62,33 128,49 203,49 79,0 145,-16 204,-49zm-512 157c-92,-49 -164,-118 -216,-206 -53,-89 -79,-187 -79,-296 0,-108 26,-206 79,-295 52,-89 124,-157 216,-207 92,-49 197,-75 312,-75 115,0 216,26 311,75 92,50 164,118 217,207 52,89 79,187 79,295 0,109 -27,210 -79,296 -53,85 -125,157 -217,206 -91,49 -196,76 -311,76 -115,0 -220,-27 -312,-76z"/>
  <path fill="#00000" fill-rule="nonzero" d="M5952 372c-95,0 -177,16 -249,49 -69,33 -125,82 -164,141 -37,63 -59,138 -59,220 0,89 22,164 62,226 42,63 102,109 180,138l-239 348 220 0 249 -374 0 -108 -10 0c-82,0 -141,-20 -184,-63 -42,-39 -65,-98 -65,-170 0,-76 23,-135 69,-174 46,-39 111,-59 196,-59l240 0 0 948 203 0 0 -1122 -449 0 0 0z"/>
  <polygon fill="#00000" fill-rule="nonzero" points="9373,1494 9577,1494 9577,372 9373,372 "/>
  <polygon fill="#00000" fill-rule="nonzero" points="9918,917 10335,372 10095,372 9724,864 9724,995 10095,1497 10351,1497 "/>
  <path fill="#00000" fill-rule="nonzero" d="M4374 2632c49,0 95,-10 134,-29 40,-20 69,-46 89,-82 20,-36 30,-79 30,-125 0,-46 -10,-89 -30,-125 -20,-36 -49,-62 -89,-82 -39,-19 -82,-29 -134,-29l-167 0 0 472 167 0zm-295 -580l302 0c72,0 137,13 196,42 56,30 102,69 132,122 29,52 46,111 46,180 0,69 -17,128 -46,181 -30,52 -76,91 -132,121 -55,29 -121,43 -196,43l-302 0 0 -689z"/>
  <polygon fill="#00000" fill-rule="nonzero" points="5604,2632 5604,2741 5089,2741 5089,2052 5591,2052 5591,2160 5217,2160 5217,2340 5548,2340 5548,2445 5217,2445 5217,2636 5604,2636 "/>
  <path fill="#00000" fill-rule="nonzero" d="M6004 2727c-49,-16 -88,-36 -118,-59l43 -98c29,23 62,39 105,56 39,13 82,19 125,19 52,0 88,-6 114,-26 27,-16 40,-39 40,-65 0,-20 -7,-37 -20,-50 -13,-13 -33,-23 -52,-29 -23,-7 -53,-17 -89,-23 -52,-13 -95,-26 -128,-36 -33,-13 -59,-33 -82,-59 -23,-26 -36,-63 -36,-109 0,-39 10,-72 30,-104 19,-30 52,-56 91,-76 43,-20 92,-26 155,-26 42,0 82,6 124,16 40,10 76,26 105,46l-39 99c-30,-17 -63,-30 -95,-40 -33,-10 -66,-13 -95,-13 -50,0 -89,10 -112,26 -26,17 -36,40 -36,69 0,20 6,36 20,49 13,13 32,23 52,30 23,7 53,16 89,26 52,13 92,23 124,36 33,13 63,33 86,59 23,27 36,63 36,105 0,40 -10,72 -30,102 -20,29 -52,56 -95,72 -43,20 -92,26 -154,26 -56,-3 -108,-9 -158,-23z"/>
  <polygon fill="#00000" fill-rule="nonzero" points="6759,2741 6887,2741 6887,2052 6759,2052 "/>
  <path fill="#00000" fill-rule="nonzero" d="M7740 2386l121 0 0 276c-36,29 -75,49 -125,65 -45,17 -95,23 -144,23 -69,0 -134,-16 -190,-46 -56,-29 -102,-72 -131,-127 -33,-53 -50,-115 -50,-181 0,-69 17,-128 50,-180 32,-53 75,-95 134,-128 56,-30 122,-46 190,-46 59,0 112,10 158,29 46,20 85,46 118,82l-82 79c-53,-52 -115,-79 -190,-79 -50,0 -92,10 -128,30 -40,20 -66,49 -89,85 -20,36 -33,79 -33,125 0,46 10,88 33,124 20,37 49,66 89,86 39,19 82,33 128,33 52,0 101,-14 141,-37l0 -213z"/>
  <polygon fill="#00000" fill-rule="nonzero" points="8839,2052 8839,2741 8734,2741 8353,2275 8353,2741 8225,2741 8225,2052 8330,2052 8711,2517 8711,2052 "/>
  <path fill="#00000" fill-rule="nonzero" d="M2881 744c-143,-235 -345,-418 -605,-548 -259,-131 -557,-196 -892,-196l-868 0 278 373 619 0c257,0 483,49 678,146 194,98 345,249 451,425 105,177 158,380 158,612 0,231 -53,434 -158,611 -106,176 -257,318 -451,416 -195,98 -421,146 -678,146l-1018 0 0 -2356 -275 -373 -120 0 0 3111 1384 0c335,0 633,-65 892,-196 260,-130 462,-313 605,-548 144,-236 216,-506 216,-811 0,-306 -72,-576 -216,-812z"/>
 </g>
</svg>