<svg width="55" height="55" viewBox="0 0 55 55" fill="none" xmlns="http://www.w3.org/2000/svg">
<path d="M53.8845 8.86951C53.5165 8.86951 53.219 9.16699 53.219 9.53499C53.219 9.90299 53.5165 10.2005 53.8845 10.2005C54.2503 10.2005 54.55 9.90299 54.55 9.53499C54.5478 9.16699 54.2503 8.86951 53.8845 8.86951Z" fill="#005840"/>
<path d="M49.4486 8.86951C49.0806 8.86951 48.7831 9.16699 48.7854 9.53499C48.7854 9.90299 49.0828 10.2005 49.4508 10.2005C49.8188 10.2005 50.1163 9.90299 50.1163 9.53499C50.1141 9.16699 49.8144 8.86951 49.4486 8.86951Z" fill="#005840"/>
<path d="M53.8845 4.43579C53.5165 4.43579 53.219 4.73328 53.219 5.10128C53.219 5.46928 53.5165 5.76676 53.8845 5.76676C54.2503 5.76676 54.55 5.46928 54.55 5.10128C54.5478 4.73328 54.2503 4.43579 53.8845 4.43579Z" fill="#005840"/>
<path d="M49.4487 4.43579C49.0807 4.43579 48.7854 4.73328 48.7854 5.10128C48.7854 5.46928 49.0829 5.76676 49.4487 5.76676C49.8167 5.76676 50.1142 5.46928 50.1142 5.10128C50.1142 4.73328 49.8167 4.43579 49.4487 4.43579Z" fill="#005840"/>
<path d="M47.2319 6.65259C46.8639 6.65259 46.5664 6.95007 46.5664 7.31807C46.5664 7.68607 46.8639 7.98356 47.2319 7.98356C47.5977 7.98356 47.8974 7.68607 47.8974 7.31807C47.8952 6.95007 47.5977 6.65259 47.2319 6.65259Z" fill="#005840"/>
<path d="M51.6655 6.65259C51.2975 6.65259 51 6.95007 51 7.31807C51 7.68607 51.2975 7.98356 51.6655 7.98356C52.0313 7.98356 52.331 7.68607 52.331 7.31807C52.331 6.95007 52.0335 6.65259 51.6655 6.65259Z" fill="#005840"/>
<path d="M51.6655 2.2168C51.2975 2.2168 51 2.51428 51 2.88228C51 3.24808 51.2975 3.54777 51.6655 3.54777C52.0313 3.54777 52.331 3.25028 52.331 2.88228C52.331 2.51649 52.0335 2.2168 51.6655 2.2168Z" fill="#005840"/>
<path d="M53.8845 1.33097C54.2503 1.33097 54.55 1.03349 54.55 0.665486C54.55 0.297485 54.2525 0 53.8845 0C53.5165 0 53.219 0.297485 53.219 0.665486C53.219 1.03349 53.5165 1.33097 53.8845 1.33097Z" fill="#005840"/>
<path d="M53.8845 17.7389C53.5165 17.7389 53.219 18.0364 53.219 18.4044C53.219 18.7724 53.5165 19.0699 53.8845 19.0699C54.2503 19.0699 54.55 18.7724 54.55 18.4044C54.5478 18.0364 54.2503 17.7389 53.8845 17.7389Z" fill="#005840"/>
<path d="M49.4487 17.7389C49.0807 17.7389 48.7854 18.0364 48.7832 18.4044C48.7832 18.7724 49.0807 19.0699 49.4487 19.0699C49.8167 19.0699 50.1142 18.7724 50.1142 18.4044C50.1142 18.0364 49.8145 17.7389 49.4487 17.7389Z" fill="#005840"/>
<path d="M53.8845 13.3053C53.5165 13.3053 53.219 13.6028 53.219 13.9708C53.219 14.3388 53.5165 14.6363 53.8845 14.6363C54.2503 14.6363 54.55 14.3388 54.55 13.9708C54.5478 13.6028 54.2503 13.3053 53.8845 13.3053Z" fill="#005840"/>
<path d="M49.4487 13.3053C49.0807 13.3053 48.7854 13.6028 48.7854 13.9708C48.7854 14.3388 49.0829 14.6363 49.4487 14.6363C49.8167 14.6363 50.1142 14.3388 50.1142 13.9708C50.1142 13.6028 49.8167 13.3053 49.4487 13.3053Z" fill="#005840"/>
<path d="M47.2319 15.5221C46.8639 15.5221 46.5664 15.8196 46.5664 16.1854C46.5664 16.5534 46.8639 16.8509 47.2319 16.8509C47.5977 16.8509 47.8974 16.5534 47.8974 16.1854C47.8952 15.8196 47.5977 15.5221 47.2319 15.5221Z" fill="#005840"/>
<path d="M51.6655 15.5221C51.2975 15.5221 51 15.8196 51 16.1854C51 16.5534 51.2975 16.8509 51.6655 16.8509C52.0313 16.8509 52.331 16.5534 52.331 16.1854C52.331 15.8196 52.0335 15.5221 51.6655 15.5221Z" fill="#005840"/>
<path d="M47.2319 11.0863C46.8639 11.0863 46.5664 11.3838 46.5664 11.7518C46.5664 12.1176 46.8639 12.4173 47.2319 12.4173C47.5999 12.4173 47.8974 12.1198 47.8974 11.7518C47.8952 11.386 47.5977 11.0863 47.2319 11.0863Z" fill="#005840"/>
<path d="M51.6655 11.0863C51.2975 11.0863 51 11.3838 51 11.7518C51 12.1176 51.2975 12.4173 51.6655 12.4173C52.0335 12.4173 52.331 12.1198 52.331 11.7518C52.331 11.386 52.0335 11.0863 51.6655 11.0863Z" fill="#005840"/>
<path d="M53.8845 26.6084C53.5165 26.6084 53.219 26.9059 53.219 27.2739C53.219 27.6419 53.5165 27.9394 53.8845 27.9394C54.2503 27.9394 54.55 27.6419 54.55 27.2739C54.5478 26.9059 54.2503 26.6084 53.8845 26.6084Z" fill="#005840"/>
<path d="M49.4487 26.6084C49.0807 26.6084 48.7832 26.9059 48.7832 27.2739C48.7832 27.6419 49.0807 27.9394 49.4487 27.9394C49.8167 27.9394 50.1142 27.6419 50.1142 27.2739C50.1142 26.9059 49.8145 26.6084 49.4487 26.6084Z" fill="#005840"/>
<path d="M53.8845 22.1748C53.5165 22.1748 53.219 22.4723 53.219 22.8403C53.219 23.2083 53.5165 23.5058 53.8845 23.5058C54.2503 23.5058 54.55 23.2083 54.55 22.8403C54.5478 22.4723 54.2503 22.1748 53.8845 22.1748Z" fill="#005840"/>
<path d="M49.4487 22.1748C49.0807 22.1748 48.7832 22.4723 48.7832 22.8403C48.7832 23.2083 49.0807 23.5058 49.4487 23.5058C49.8167 23.5058 50.1142 23.2083 50.1142 22.8403C50.1142 22.4723 49.8167 22.1748 49.4487 22.1748Z" fill="#005840"/>
<path d="M47.2319 24.3916C46.8639 24.3916 46.5664 24.6891 46.5664 25.0571C46.5664 25.4251 46.8639 25.7226 47.2319 25.7226C47.5977 25.7226 47.8974 25.4251 47.8974 25.0571C47.8974 24.6891 47.5977 24.3916 47.2319 24.3916Z" fill="#005840"/>
<path d="M51.6655 24.3916C51.2975 24.3916 51 24.6891 51 25.0571C51 25.4251 51.2975 25.7226 51.6655 25.7226C52.0313 25.7226 52.331 25.4251 52.331 25.0571C52.331 24.6891 52.0335 24.3916 51.6655 24.3916Z" fill="#005840"/>
<path d="M47.2319 19.958C46.8639 19.958 46.5664 20.2555 46.5664 20.6235C46.5664 20.9893 46.8639 21.289 47.2319 21.289C47.5977 21.289 47.8974 20.9915 47.8974 20.6235C47.8952 20.2555 47.5977 19.958 47.2319 19.958Z" fill="#005840"/>
<path d="M51.6655 19.958C51.2975 19.958 51 20.2555 51 20.6235C51 20.9893 51.2975 21.289 51.6655 21.289C52.0313 21.289 52.331 20.9915 52.331 20.6235C52.331 20.2555 52.0335 19.958 51.6655 19.958Z" fill="#005840"/>
<path d="M53.8845 35.4779C53.5165 35.4779 53.219 35.7754 53.219 36.1434C53.219 36.5114 53.5165 36.8089 53.8845 36.8089C54.2503 36.8089 54.55 36.5114 54.55 36.1434C54.5478 35.7754 54.2503 35.4779 53.8845 35.4779Z" fill="#005840"/>
<path d="M49.4487 35.4779C49.0807 35.4779 48.7832 35.7754 48.7832 36.1434C48.7832 36.5114 49.0807 36.8089 49.4487 36.8089C49.8167 36.8089 50.1142 36.5114 50.1142 36.1434C50.1142 35.7776 49.8145 35.4779 49.4487 35.4779Z" fill="#005840"/>
<path d="M53.8845 31.0443C53.5165 31.0443 53.219 31.3418 53.219 31.7098C53.219 32.0778 53.5165 32.3753 53.8845 32.3753C54.2503 32.3753 54.55 32.0778 54.55 31.7098C54.5478 31.3418 54.2503 31.0443 53.8845 31.0443Z" fill="#005840"/>
<path d="M49.4487 31.0443C49.0807 31.0443 48.7832 31.3418 48.7832 31.7098C48.7832 32.0778 49.0807 32.3753 49.4487 32.3753C49.8167 32.3753 50.1142 32.0778 50.1142 31.7098C50.1142 31.3418 49.8167 31.0443 49.4487 31.0443Z" fill="#005840"/>
<path d="M47.2319 33.2611C46.8639 33.2611 46.5664 33.5586 46.5664 33.9266C46.5664 34.2946 46.8639 34.5921 47.2319 34.5921C47.5977 34.5921 47.8974 34.2946 47.8974 33.9266C47.8952 33.5586 47.5977 33.2611 47.2319 33.2611Z" fill="#005840"/>
<path d="M51.6655 33.2611C51.2975 33.2611 51 33.5586 51 33.9266C51 34.2946 51.2975 34.5921 51.6655 34.5921C52.0313 34.5921 52.331 34.2946 52.331 33.9266C52.331 33.5586 52.0335 33.2611 51.6655 33.2611Z" fill="#005840"/>
<path d="M47.2319 28.8275C46.8639 28.8275 46.5664 29.125 46.5664 29.493C46.5664 29.8588 46.8639 30.1585 47.2319 30.1585C47.5977 30.1585 47.8974 29.861 47.8974 29.493C47.8952 29.125 47.5977 28.8275 47.2319 28.8275Z" fill="#005840"/>
<path d="M51.6655 28.8275C51.2975 28.8275 51 29.125 51 29.493C51 29.8588 51.2975 30.1585 51.6655 30.1585C52.0313 30.1585 52.331 29.861 52.331 29.493C52.331 29.125 52.0335 28.8275 51.6655 28.8275Z" fill="#005840"/>
<path d="M53.8845 44.3473C53.5165 44.3473 53.219 44.6448 53.219 45.0128C53.219 45.3808 53.5165 45.6783 53.8845 45.6783C54.2503 45.6783 54.55 45.3808 54.55 45.0128C54.5478 44.647 54.2503 44.3473 53.8845 44.3473Z" fill="#005840"/>
<path d="M49.4487 44.3473C49.0807 44.3473 48.7832 44.6448 48.7832 45.0128C48.7832 45.3808 49.0807 45.6783 49.4487 45.6783C49.8167 45.6783 50.1142 45.3808 50.1142 45.0128C50.1142 44.647 49.8167 44.3473 49.4487 44.3473Z" fill="#005840"/>
<path d="M53.8845 39.9138C53.5165 39.9138 53.219 40.2113 53.219 40.5793C53.219 40.9473 53.5165 41.2448 53.8845 41.2448C54.2503 41.2448 54.55 40.9473 54.55 40.5793C54.5478 40.2113 54.2503 39.9138 53.8845 39.9138Z" fill="#005840"/>
<path d="M49.4487 39.9138C49.0807 39.9138 48.7832 40.2113 48.7832 40.5793C48.7832 40.9473 49.0807 41.2448 49.4487 41.2448C49.8167 41.2448 50.1142 40.9473 50.1142 40.5793C50.1142 40.2113 49.8167 39.9138 49.4487 39.9138Z" fill="#005840"/>
<path d="M47.2319 42.1306C46.8639 42.1306 46.5664 42.4281 46.5664 42.7961C46.5664 43.1641 46.8639 43.4616 47.2319 43.4616C47.5977 43.4616 47.8974 43.1641 47.8974 42.7961C47.8952 42.4281 47.5977 42.1306 47.2319 42.1306Z" fill="#005840"/>
<path d="M51.6655 42.1306C51.2975 42.1306 51 42.4281 51 42.7961C51 43.1641 51.2975 43.4616 51.6655 43.4616C52.0313 43.4616 52.331 43.1641 52.331 42.7961C52.331 42.4281 52.0335 42.1306 51.6655 42.1306Z" fill="#005840"/>
<path d="M47.2319 37.6969C46.8639 37.6969 46.5664 37.9944 46.5664 38.3624C46.5664 38.7304 46.8639 39.0279 47.2319 39.0279C47.5977 39.0279 47.8974 38.7304 47.8974 38.3624C47.8952 37.9944 47.5977 37.6969 47.2319 37.6969Z" fill="#005840"/>
<path d="M51.6655 37.6969C51.2975 37.6969 51 37.9944 51 38.3624C51 38.7282 51.2975 39.0257 51.6655 39.0279C52.0313 39.0279 52.331 38.7304 52.331 38.3624C52.331 37.9944 52.0335 37.6969 51.6655 37.6969Z" fill="#005840"/>
<path d="M53.8845 53.2168C53.5165 53.2168 53.219 53.5143 53.219 53.8823C53.219 54.2503 53.5165 54.5478 53.8845 54.5478C54.2503 54.5478 54.55 54.2503 54.55 53.8823C54.5478 53.5165 54.2503 53.2168 53.8845 53.2168Z" fill="#005840"/>
<path d="M49.4487 53.2168C49.0807 53.2168 48.7832 53.5143 48.7832 53.8823C48.7832 54.2503 49.0807 54.5478 49.4487 54.5478C49.8167 54.5478 50.1142 54.2503 50.1142 53.8823C50.1142 53.5165 49.8167 53.2168 49.4487 53.2168Z" fill="#005840"/>
<path d="M53.8845 48.7832C53.5165 48.7832 53.219 49.0807 53.219 49.4487C53.219 49.8167 53.5165 50.1142 53.8845 50.1142C54.2503 50.1142 54.55 49.8167 54.55 49.4487C54.5478 49.0807 54.2503 48.7832 53.8845 48.7832Z" fill="#005840"/>
<path d="M49.4487 48.7832C49.0807 48.7832 48.7832 49.0807 48.7832 49.4487C48.7832 49.8167 49.0807 50.1142 49.4487 50.1142C49.8167 50.1142 50.1142 49.8167 50.1142 49.4487C50.1142 49.0807 49.8167 48.7832 49.4487 48.7832Z" fill="#005840"/>
<path d="M47.2319 51C46.8639 51 46.5664 51.2975 46.5664 51.6655C46.5664 52.0335 46.8639 52.331 47.2319 52.331C47.5977 52.331 47.8974 52.0335 47.8974 51.6655C47.8952 51.2997 47.5977 51.0022 47.2319 51Z" fill="#005840"/>
<path d="M51.6655 51C51.2975 51 51 51.2975 51 51.6655C51 52.0335 51.2975 52.331 51.6655 52.331C52.0313 52.331 52.331 52.0335 52.331 51.6655C52.331 51.2997 52.0335 51.0022 51.6655 51Z" fill="#005840"/>
<path d="M47.2319 46.5664C46.8639 46.5664 46.5664 46.8639 46.5664 47.2319C46.5664 47.5999 46.8639 47.8974 47.2319 47.8974C47.5977 47.8974 47.8974 47.5999 47.8974 47.2319C47.8952 46.8639 47.5977 46.5664 47.2319 46.5664Z" fill="#005840"/>
<path d="M51.6655 46.5664C51.2975 46.5664 51 46.8639 51 47.2319C51 47.5999 51.2975 47.8974 51.6655 47.8974C52.0313 47.8974 52.331 47.5999 52.331 47.2319C52.331 46.8639 52.0335 46.5664 51.6655 46.5664Z" fill="#005840"/>
<path d="M45.015 8.86951C44.8762 8.86951 44.7484 8.91138 44.6426 8.98409C44.4663 9.10309 44.3495 9.30582 44.3495 9.53499C44.3495 9.76417 44.4663 9.9669 44.6426 10.0859C44.7484 10.1586 44.8762 10.2005 45.015 10.2005C45.2442 10.2005 45.4469 10.0837 45.5659 9.9074C45.6364 9.80163 45.6783 9.67382 45.6783 9.53499C45.6783 9.39617 45.6364 9.26836 45.5659 9.16259C45.4447 8.9863 45.242 8.86951 45.015 8.86951Z" fill="#005840"/>
<path d="M45.015 17.7389C44.8762 17.7389 44.7484 17.7808 44.6426 17.8535C44.4641 17.9725 44.3495 18.1752 44.3495 18.4044C44.3495 18.6336 44.4663 18.8363 44.6426 18.9553C44.7484 19.028 44.8762 19.0699 45.015 19.0699C45.2442 19.0699 45.4469 18.9531 45.5659 18.7768C45.6364 18.671 45.6783 18.5432 45.6783 18.4044C45.6783 18.2656 45.6364 18.1377 45.5659 18.032C45.4447 17.8557 45.242 17.7389 45.015 17.7389Z" fill="#005840"/>
<path d="M40.5792 17.7389C40.2112 17.7389 39.9137 18.0364 39.9137 18.4044C39.9137 18.7724 40.2112 19.0699 40.5792 19.0699C40.9472 19.0699 41.2447 18.7724 41.2447 18.4044C41.2447 18.0364 40.945 17.7389 40.5792 17.7389Z" fill="#005840"/>
<path d="M45.015 13.3053C44.8762 13.3053 44.7484 13.3472 44.6426 13.4177C44.4663 13.5367 44.3495 13.7394 44.3495 13.9686C44.3495 14.1978 44.4663 14.4005 44.6426 14.5195C44.7484 14.59 44.8762 14.6341 45.015 14.6341C45.2442 14.6341 45.4469 14.5173 45.5659 14.341C45.6364 14.2352 45.6783 14.1074 45.6783 13.9686C45.6783 13.8298 45.6364 13.7019 45.5659 13.5962C45.4447 13.4221 45.242 13.3053 45.015 13.3053Z" fill="#005840"/>
<path d="M40.5792 13.3053C40.2112 13.3053 39.9137 13.6028 39.9137 13.9708C39.9137 14.3388 40.2112 14.6363 40.5792 14.6363C40.9472 14.6363 41.2447 14.3388 41.2447 13.9708C41.2447 13.6028 40.945 13.3053 40.5792 13.3053Z" fill="#005840"/>
<path d="M38.3624 15.5221C37.9944 15.5221 37.6969 15.8196 37.6969 16.1854C37.6969 16.5534 37.9944 16.8509 38.3624 16.8509C38.7304 16.8509 39.0279 16.5534 39.0279 16.1854C39.0257 15.8196 38.7282 15.5221 38.3624 15.5221Z" fill="#005840"/>
<path d="M42.796 15.5221C42.428 15.5221 42.1306 15.8196 42.1306 16.1854C42.1306 16.5534 42.428 16.8509 42.796 16.8509C43.164 16.8509 43.4615 16.5534 43.4615 16.1854C43.4615 15.8196 43.164 15.5221 42.796 15.5221Z" fill="#005840"/>
<path d="M42.796 11.0863C42.4302 11.0863 42.1306 11.3838 42.1306 11.7518C42.1306 12.1176 42.428 12.4173 42.796 12.4173C43.164 12.4173 43.4615 12.1198 43.4615 11.7518C43.4615 11.386 43.164 11.0863 42.796 11.0863Z" fill="#005840"/>
<path d="M45.015 26.6084C44.8762 26.6084 44.7484 26.6503 44.6426 26.723C44.4663 26.842 44.3495 27.0447 44.3495 27.2739C44.3495 27.5031 44.4663 27.7058 44.6426 27.8248C44.7484 27.8975 44.8762 27.9394 45.015 27.9394C45.2442 27.9394 45.4469 27.8226 45.5659 27.6463C45.6364 27.5405 45.6783 27.4127 45.6783 27.2739C45.6783 27.1351 45.6364 27.0072 45.5659 26.9015C45.4447 26.7252 45.242 26.6084 45.015 26.6084Z" fill="#005840"/>
<path d="M40.5792 26.6084C40.2112 26.6084 39.9137 26.9059 39.9137 27.2739C39.9137 27.6419 40.2112 27.9394 40.5792 27.9394C40.9472 27.9394 41.2447 27.6419 41.2447 27.2739C41.2447 26.9059 40.945 26.6084 40.5792 26.6084Z" fill="#005840"/>
<path d="M45.0128 22.1748C44.874 22.1748 44.7462 22.2167 44.6404 22.2894C44.4641 22.4084 44.3474 22.6111 44.3474 22.8425C44.3474 23.0717 44.4641 23.2744 44.6404 23.3934C44.7462 23.4639 44.874 23.5058 45.0128 23.508C45.242 23.508 45.4447 23.3912 45.5637 23.2149C45.6343 23.1091 45.6761 22.9813 45.6761 22.8425C45.6761 22.7037 45.6343 22.5759 45.5637 22.4701C45.4447 22.2894 45.242 22.1748 45.0128 22.1748Z" fill="#005840"/>
<path d="M40.5792 22.1748C40.2112 22.1748 39.9137 22.4723 39.9137 22.8403C39.9137 23.2083 40.2112 23.5058 40.5792 23.5058C40.9472 23.5058 41.2447 23.2083 41.2447 22.8403C41.2447 22.4723 40.945 22.1748 40.5792 22.1748Z" fill="#005840"/>
<path d="M38.3624 24.3916C37.9944 24.3916 37.6969 24.6891 37.6969 25.0571C37.6969 25.4251 37.9944 25.7226 38.3624 25.7226C38.7304 25.7226 39.0279 25.4251 39.0279 25.0571C39.0279 24.6891 38.7282 24.3916 38.3624 24.3916Z" fill="#005840"/>
<path d="M42.796 24.3916C42.428 24.3916 42.1306 24.6891 42.1306 25.0571C42.1306 25.4251 42.428 25.7226 42.796 25.7226C43.164 25.7226 43.4615 25.4251 43.4615 25.0571C43.4615 24.6891 43.164 24.3916 42.796 24.3916Z" fill="#005840"/>
<path d="M38.3624 19.958C37.9944 19.958 37.6969 20.2555 37.6969 20.6235C37.6969 20.9893 37.9944 21.289 38.3624 21.289C38.7282 21.289 39.0279 20.9915 39.0279 20.6235C39.0257 20.2555 38.7282 19.958 38.3624 19.958Z" fill="#005840"/>
<path d="M42.796 19.958C42.428 19.958 42.1306 20.2555 42.1306 20.6235C42.1306 20.9893 42.428 21.289 42.796 21.289C43.164 21.289 43.4615 20.9915 43.4615 20.6235C43.4615 20.2555 43.164 19.958 42.796 19.958Z" fill="#005840"/>
<path d="M45.015 35.4779C44.8762 35.4779 44.7484 35.5198 44.6426 35.5925C44.4663 35.7115 44.3495 35.9142 44.3495 36.1434C44.3495 36.3726 44.4663 36.5753 44.6426 36.6943C44.7484 36.767 44.8762 36.8089 45.015 36.8089C45.2442 36.8089 45.4469 36.6921 45.5659 36.5158C45.6364 36.41 45.6783 36.2822 45.6783 36.1434C45.6783 36.0046 45.6364 35.8768 45.5659 35.771C45.4447 35.5947 45.242 35.4779 45.015 35.4779Z" fill="#005840"/>
<path d="M40.5792 35.4779C40.2112 35.4779 39.9137 35.7754 39.9137 36.1434C39.9137 36.5114 40.2112 36.8089 40.5792 36.8089C40.9472 36.8089 41.2447 36.5114 41.2447 36.1434C41.2447 35.7754 40.945 35.4779 40.5792 35.4779Z" fill="#005840"/>
<path d="M45.0128 31.0443C44.874 31.0443 44.7462 31.0862 44.6404 31.1589C44.4619 31.2779 44.3474 31.4806 44.3474 31.7098C44.3474 31.939 44.4641 32.1417 44.6404 32.2607C44.7462 32.3334 44.874 32.3731 45.0128 32.3753C45.242 32.3753 45.4447 32.2585 45.5637 32.0822C45.6343 31.9742 45.6761 31.8464 45.6761 31.7098C45.6761 31.571 45.6343 31.4432 45.5637 31.3374C45.4447 31.1589 45.2442 31.0443 45.0128 31.0443Z" fill="#005840"/>
<path d="M40.5792 31.0443C40.2112 31.0443 39.9137 31.3418 39.9137 31.7098C39.9137 32.0778 40.2112 32.3753 40.5792 32.3753C40.9472 32.3753 41.2447 32.0778 41.2447 31.7098C41.2447 31.3418 40.945 31.0443 40.5792 31.0443Z" fill="#005840"/>
<path d="M38.3624 33.2611C37.9944 33.2611 37.6969 33.5586 37.6969 33.9266C37.6969 34.2946 37.9944 34.5921 38.3624 34.5921C38.7304 34.5921 39.0279 34.2946 39.0279 33.9266C39.0257 33.5586 38.7282 33.2611 38.3624 33.2611Z" fill="#005840"/>
<path d="M42.796 33.2611C42.428 33.2611 42.1306 33.5586 42.1306 33.9266C42.1306 34.2946 42.428 34.5921 42.796 34.5921C43.164 34.5921 43.4615 34.2946 43.4615 33.9266C43.4615 33.5586 43.164 33.2611 42.796 33.2611Z" fill="#005840"/>
<path d="M38.3624 28.8275C37.9944 28.8275 37.6969 29.125 37.6969 29.493C37.6969 29.8588 37.9944 30.1585 38.3624 30.1585C38.7282 30.1585 39.0279 29.861 39.0279 29.493C39.0257 29.125 38.7282 28.8275 38.3624 28.8275Z" fill="#005840"/>
<path d="M42.796 28.8275C42.428 28.8275 42.1306 29.125 42.1306 29.493C42.1306 29.8588 42.428 30.1585 42.796 30.1585C43.164 30.1585 43.4615 29.861 43.4615 29.493C43.4615 29.125 43.164 28.8275 42.796 28.8275Z" fill="#005840"/>
<path d="M45.0128 44.3473C44.874 44.3473 44.7462 44.3892 44.6404 44.4619C44.4641 44.5809 44.3474 44.7836 44.3474 45.0128C44.3474 45.242 44.4641 45.4447 44.6404 45.5659C44.7462 45.6386 44.874 45.6805 45.0128 45.6783C45.242 45.6783 45.4447 45.5615 45.5637 45.3852C45.6343 45.2794 45.6761 45.1516 45.6783 45.0128C45.6783 44.8762 45.6365 44.7483 45.5637 44.6404C45.4447 44.4641 45.2442 44.3473 45.0128 44.3473Z" fill="#005840"/>
<path d="M40.5792 44.3473C40.2112 44.3473 39.9137 44.6448 39.9137 45.0128C39.9137 45.3808 40.2112 45.6783 40.5792 45.6783C40.9472 45.6783 41.2447 45.3808 41.2447 45.0128C41.2447 44.647 40.945 44.3473 40.5792 44.3473Z" fill="#005840"/>
<path d="M45.0128 39.9138C44.874 39.9138 44.7462 39.9557 44.6404 40.0262C44.4641 40.1452 44.3474 40.3479 44.3474 40.5771C44.3474 40.8063 44.4641 41.009 44.6404 41.128C44.7462 41.2007 44.874 41.2426 45.0128 41.2426C45.242 41.2426 45.4447 41.1258 45.5637 40.9495C45.6343 40.8437 45.6783 40.7159 45.6783 40.5771C45.6783 40.4383 45.6365 40.3105 45.5637 40.2047C45.4447 40.0306 45.2442 39.9138 45.0128 39.9138Z" fill="#005840"/>
<path d="M40.5792 39.9138C40.2112 39.9138 39.9137 40.2113 39.9137 40.5793C39.9137 40.9473 40.2112 41.2448 40.5792 41.2448C40.9472 41.2448 41.2447 40.9473 41.2447 40.5793C41.2447 40.2113 40.945 39.9138 40.5792 39.9138Z" fill="#005840"/>
<path d="M38.3624 42.1306C37.9944 42.1306 37.6969 42.4281 37.6969 42.7961C37.6969 43.1641 37.9944 43.4616 38.3624 43.4616C38.7304 43.4616 39.0279 43.1641 39.0279 42.7961C39.0257 42.4281 38.7282 42.1306 38.3624 42.1306Z" fill="#005840"/>
<path d="M42.796 42.1306C42.428 42.1306 42.1306 42.4281 42.1306 42.7961C42.1306 43.1641 42.428 43.4616 42.796 43.4616C43.164 43.4616 43.4615 43.1641 43.4615 42.7961C43.4615 42.4281 43.164 42.1306 42.796 42.1306Z" fill="#005840"/>
<path d="M38.3624 37.6969C37.9944 37.6969 37.6969 37.9944 37.6969 38.3624C37.6969 38.7304 37.9944 39.0279 38.3624 39.0279C38.7304 39.0279 39.0279 38.7304 39.0279 38.3624C39.0257 37.9944 38.7282 37.6969 38.3624 37.6969Z" fill="#005840"/>
<path d="M42.796 37.6969C42.428 37.6969 42.1306 37.9944 42.1306 38.3624C42.1306 38.7304 42.428 39.0279 42.796 39.0279C43.164 39.0279 43.4615 38.7304 43.4615 38.3624C43.4615 37.9944 43.164 37.6969 42.796 37.6969Z" fill="#005840"/>
<path d="M45.0128 53.2168C44.874 53.2168 44.7462 53.2587 44.6404 53.3314C44.4641 53.4504 44.3474 53.6531 44.3474 53.8823C44.3474 54.1115 44.4641 54.3142 44.6404 54.4332C44.7462 54.5059 44.874 54.5478 45.0128 54.5478C45.242 54.5478 45.4447 54.431 45.5637 54.2547C45.6343 54.1489 45.6761 54.0211 45.6783 53.8823C45.6783 53.7435 45.6365 53.6156 45.5637 53.5099C45.4447 53.3336 45.2442 53.2168 45.0128 53.2168Z" fill="#005840"/>
<path d="M40.5792 53.2168C40.2112 53.2168 39.9137 53.5143 39.9137 53.8823C39.9137 54.2503 40.2112 54.5478 40.5792 54.5478C40.9472 54.5478 41.2447 54.2503 41.2447 53.8823C41.2447 53.5165 40.945 53.2168 40.5792 53.2168Z" fill="#005840"/>
<path d="M45.0128 48.7832C44.874 48.7832 44.7462 48.8251 44.6404 48.8956C44.4641 49.0146 44.3474 49.2173 44.3474 49.4487C44.3474 49.6779 44.4641 49.8806 44.6404 49.9996C44.7462 50.0723 44.874 50.112 45.0128 50.112C45.242 50.112 45.4447 49.9952 45.5637 49.8189C45.6343 49.7131 45.6783 49.5853 45.6761 49.4465C45.6761 49.3077 45.6343 49.1798 45.5637 49.0741C45.4447 48.9 45.2442 48.7832 45.0128 48.7832Z" fill="#005840"/>
<path d="M40.5792 48.7832C40.2112 48.7832 39.9137 49.0807 39.9137 49.4487C39.9137 49.8167 40.2112 50.1142 40.5792 50.1142C40.9472 50.1142 41.2447 49.8167 41.2447 49.4487C41.2447 49.0807 40.945 48.7832 40.5792 48.7832Z" fill="#005840"/>
<path d="M38.3624 51.0022C37.9944 51.0022 37.6969 51.2997 37.6969 51.6677C37.6969 52.0357 37.9944 52.3332 38.3624 52.3332C38.7304 52.3332 39.0279 52.0357 39.0279 51.6677C39.0257 51.2997 38.7282 51.0022 38.3624 51.0022Z" fill="#005840"/>
<path d="M42.796 51C42.428 51 42.1306 51.2975 42.1306 51.6655C42.1306 52.0335 42.428 52.331 42.796 52.331C43.164 52.331 43.4615 52.0335 43.4615 51.6655C43.4615 51.2997 43.164 51.0022 42.796 51Z" fill="#005840"/>
<path d="M38.3624 46.5664C37.9944 46.5664 37.6969 46.8639 37.6969 47.2319C37.6969 47.5999 37.9944 47.8974 38.3624 47.8974C38.7304 47.8974 39.0279 47.5999 39.0279 47.2319C39.0257 46.8639 38.7282 46.5664 38.3624 46.5664Z" fill="#005840"/>
<path d="M42.796 46.5664C42.4302 46.5664 42.1306 46.8639 42.1306 47.2319C42.1306 47.5999 42.428 47.8974 42.796 47.8974C43.164 47.8974 43.4615 47.5999 43.4615 47.2319C43.4615 46.8639 43.164 46.5664 42.796 46.5664Z" fill="#005840"/>
<path d="M36.1434 17.7389C36.0046 17.7389 35.8768 17.7808 35.771 17.8535C35.5925 17.9725 35.4779 18.1752 35.4779 18.4044C35.4779 18.6336 35.5947 18.8363 35.771 18.9553C35.8768 19.028 36.0046 19.0699 36.1434 19.0699C36.3263 19.0699 36.4938 18.9949 36.6128 18.8737C36.734 18.7525 36.8089 18.5873 36.8067 18.4044C36.8067 18.2215 36.7318 18.054 36.6128 17.9328C36.4938 17.8138 36.3285 17.7389 36.1434 17.7389Z" fill="#005840"/>
<path d="M36.1434 26.6084C36.0046 26.6084 35.8768 26.6503 35.771 26.723C35.5947 26.842 35.4779 27.0447 35.4779 27.2739C35.4779 27.5031 35.5947 27.7058 35.771 27.8248C35.8768 27.8975 36.0046 27.9394 36.1434 27.9372C36.3263 27.9372 36.4938 27.8622 36.6128 27.7433C36.734 27.6221 36.8067 27.4568 36.8067 27.2739C36.8067 27.091 36.7318 26.9235 36.6128 26.8023C36.4938 26.6811 36.3285 26.6084 36.1434 26.6084Z" fill="#005840"/>
<path d="M31.7097 26.6084C31.3417 26.6084 31.0443 26.9059 31.0443 27.2739C31.0443 27.6419 31.3417 27.9394 31.7097 27.9394C32.0777 27.9394 32.3752 27.6419 32.3752 27.2739C32.3752 26.9059 32.0755 26.6084 31.7097 26.6084Z" fill="#005840"/>
<path d="M36.1434 22.1748C36.0046 22.1748 35.8768 22.2167 35.771 22.2872C35.5925 22.4062 35.4779 22.6089 35.4779 22.8403C35.4779 23.0695 35.5947 23.2722 35.771 23.3912C35.8768 23.4617 36.0046 23.5036 36.1434 23.5058C36.3263 23.5058 36.4938 23.4309 36.6128 23.3119C36.734 23.1907 36.8089 23.0254 36.8067 22.8425C36.8067 22.6596 36.7318 22.4921 36.6128 22.3709C36.4938 22.2475 36.3285 22.1748 36.1434 22.1748Z" fill="#005840"/>
<path d="M31.7097 22.1748C31.3417 22.1748 31.0443 22.4723 31.0443 22.8403C31.0443 23.2083 31.3417 23.5058 31.7097 23.5058C32.0777 23.5058 32.3752 23.2083 32.3752 22.8403C32.3752 22.4723 32.0755 22.1748 31.7097 22.1748Z" fill="#005840"/>
<path d="M29.4907 24.3916C29.1227 24.3916 28.8252 24.6891 28.8252 25.0571C28.8252 25.4251 29.1227 25.7226 29.4907 25.7226C29.8565 25.7226 30.1562 25.4251 30.1562 25.0571C30.1562 24.6891 29.8587 24.3916 29.4907 24.3916Z" fill="#005840"/>
<path d="M33.9265 24.3916C33.5585 24.3916 33.261 24.6891 33.261 25.0571C33.261 25.4251 33.5585 25.7226 33.9265 25.7226C34.2945 25.7226 34.592 25.4251 34.592 25.0571C34.592 24.6891 34.2945 24.3916 33.9265 24.3916Z" fill="#005840"/>
<path d="M33.9265 19.958C33.5585 19.958 33.261 20.2555 33.261 20.6235C33.261 20.9893 33.5585 21.289 33.9265 21.289C34.2945 21.289 34.592 20.9915 34.592 20.6235C34.592 20.2555 34.2945 19.958 33.9265 19.958Z" fill="#005840"/>
<path d="M36.1434 35.4779C36.0046 35.4779 35.8768 35.5198 35.771 35.5925C35.5947 35.7115 35.4779 35.9142 35.4779 36.1434C35.4779 36.3726 35.5947 36.5753 35.771 36.6943C35.8768 36.767 36.0046 36.8089 36.1434 36.8089C36.3263 36.8089 36.4938 36.734 36.6128 36.615C36.734 36.4938 36.8067 36.3285 36.8089 36.1434C36.8089 35.9605 36.734 35.793 36.6128 35.6718C36.4938 35.5528 36.3285 35.4779 36.1434 35.4779Z" fill="#005840"/>
<path d="M31.7097 35.4779C31.3417 35.4779 31.0443 35.7754 31.0443 36.1434C31.0443 36.5114 31.3417 36.8089 31.7097 36.8089C32.0777 36.8089 32.3752 36.5114 32.3752 36.1434C32.3752 35.7754 32.0755 35.4779 31.7097 35.4779Z" fill="#005840"/>
<path d="M36.1434 31.0443C36.0046 31.0443 35.8768 31.0862 35.771 31.1567C35.5947 31.2757 35.4779 31.4784 35.4779 31.7076C35.4779 31.9368 35.5947 32.1395 35.771 32.2585C35.8768 32.3312 36.0046 32.3709 36.1434 32.3731C36.3263 32.3731 36.4938 32.2982 36.6128 32.1792C36.734 32.058 36.8067 31.8927 36.8089 31.7076C36.8089 31.5225 36.734 31.3572 36.6128 31.236C36.4938 31.1192 36.3285 31.0443 36.1434 31.0443Z" fill="#005840"/>
<path d="M31.7097 31.0443C31.3417 31.0443 31.0443 31.3418 31.0443 31.7098C31.0443 32.0778 31.3417 32.3753 31.7097 32.3753C32.0777 32.3753 32.3752 32.0778 32.3752 31.7098C32.3752 31.3418 32.0777 31.0443 31.7097 31.0443Z" fill="#005840"/>
<path d="M29.4907 33.2611C29.1227 33.2611 28.8252 33.5586 28.8252 33.9266C28.8252 34.2946 29.1227 34.5921 29.4907 34.5921C29.8565 34.5921 30.1562 34.2946 30.1562 33.9266C30.1562 33.5586 29.8587 33.2611 29.4907 33.2611Z" fill="#005840"/>
<path d="M33.9265 33.2611C33.5585 33.2611 33.261 33.5586 33.261 33.9266C33.261 34.2946 33.5585 34.5921 33.9265 34.5921C34.2945 34.5921 34.592 34.2946 34.592 33.9266C34.592 33.5586 34.2945 33.2611 33.9265 33.2611Z" fill="#005840"/>
<path d="M29.4907 28.8275C29.1227 28.8275 28.8252 29.125 28.8252 29.493C28.8252 29.8588 29.1227 30.1585 29.4907 30.1585C29.8565 30.1585 30.1562 29.861 30.1562 29.493C30.1562 29.125 29.8587 28.8275 29.4907 28.8275Z" fill="#005840"/>
<path d="M33.9265 28.8275C33.5585 28.8275 33.261 29.125 33.261 29.493C33.261 29.8588 33.5585 30.1585 33.9265 30.1585C34.2945 30.1585 34.592 29.861 34.592 29.493C34.592 29.125 34.2945 28.8275 33.9265 28.8275Z" fill="#005840"/>
<path d="M36.1434 44.3473C36.0046 44.3473 35.8768 44.3892 35.771 44.4619C35.5947 44.5809 35.4779 44.7836 35.4779 45.0128C35.4779 45.242 35.5947 45.4447 35.771 45.5659C35.8768 45.6386 36.0046 45.6805 36.1434 45.6783C36.3263 45.6783 36.4938 45.6033 36.6128 45.4843C36.734 45.3631 36.8067 45.1979 36.8089 45.0128C36.8089 44.8299 36.734 44.6624 36.6128 44.5434C36.4938 44.4222 36.3285 44.3473 36.1434 44.3473Z" fill="#005840"/>
<path d="M31.7097 44.3473C31.3417 44.3473 31.0443 44.6448 31.0443 45.0128C31.0443 45.3808 31.3417 45.6783 31.7097 45.6783C32.0777 45.6783 32.3752 45.3808 32.3752 45.0128C32.3752 44.647 32.0777 44.3473 31.7097 44.3473Z" fill="#005840"/>
<path d="M36.1434 39.9138C36.0046 39.9138 35.8768 39.9557 35.771 40.0284C35.5947 40.1474 35.4779 40.3501 35.4779 40.5793C35.4779 40.8085 35.5947 41.0112 35.771 41.1302C35.8768 41.2029 36.0046 41.2448 36.1434 41.2448C36.3263 41.2448 36.4938 41.1699 36.6128 41.0509C36.7318 40.9319 36.8067 40.7644 36.8089 40.5793C36.8089 40.3964 36.734 40.2289 36.6128 40.1077C36.4938 39.9887 36.3285 39.9138 36.1434 39.9138Z" fill="#005840"/>
<path d="M31.7097 39.9138C31.3417 39.9138 31.0443 40.2113 31.0443 40.5793C31.0443 40.9473 31.3417 41.2448 31.7097 41.2448C32.0777 41.2448 32.3752 40.9473 32.3752 40.5793C32.3752 40.2113 32.0777 39.9138 31.7097 39.9138Z" fill="#005840"/>
<path d="M29.4907 42.1306C29.1227 42.1306 28.8252 42.4281 28.8252 42.7961C28.8252 43.1641 29.1227 43.4616 29.4907 43.4616C29.8565 43.4616 30.1562 43.1641 30.1562 42.7961C30.1562 42.4281 29.8587 42.1306 29.4907 42.1306Z" fill="#005840"/>
<path d="M33.9265 42.1306C33.5585 42.1306 33.261 42.4281 33.261 42.7961C33.261 43.1641 33.5585 43.4616 33.9265 43.4616C34.2945 43.4616 34.592 43.1641 34.592 42.7961C34.592 42.4281 34.2945 42.1306 33.9265 42.1306Z" fill="#005840"/>
<path d="M29.4907 37.6969C29.1227 37.6969 28.8252 37.9944 28.8252 38.3624C28.8252 38.7282 29.1227 39.0279 29.4907 39.0279C29.8565 39.0279 30.1562 38.7304 30.1562 38.3624C30.1562 37.9944 29.8587 37.6969 29.4907 37.6969Z" fill="#005840"/>
<path d="M33.9265 37.6969C33.5585 37.6969 33.261 37.9944 33.261 38.3624C33.261 38.7282 33.5585 39.0279 33.9265 39.0279C34.2945 39.0279 34.592 38.7304 34.592 38.3624C34.592 37.9944 34.2945 37.6969 33.9265 37.6969Z" fill="#005840"/>
<path d="M36.1434 53.2168C36.0046 53.2168 35.8768 53.2587 35.771 53.3314C35.5947 53.4504 35.4779 53.6531 35.4779 53.8823C35.4779 54.1115 35.5947 54.3142 35.771 54.4332C35.8768 54.5059 36.0046 54.5478 36.1434 54.5478C36.3263 54.5478 36.4938 54.4728 36.6128 54.3539C36.7318 54.2349 36.8067 54.0674 36.8089 53.8823C36.8089 53.6994 36.734 53.5319 36.6128 53.4129C36.4938 53.2917 36.3285 53.2168 36.1434 53.2168Z" fill="#005840"/>
<path d="M31.7097 53.2168C31.3417 53.2168 31.0443 53.5143 31.0443 53.8823C31.0443 54.2503 31.3417 54.5478 31.7097 54.5478C32.0777 54.5478 32.3752 54.2503 32.3752 53.8823C32.3752 53.5165 32.0777 53.2168 31.7097 53.2168Z" fill="#005840"/>
<path d="M36.1434 48.7832C36.0046 48.7832 35.8768 48.8251 35.771 48.8956C35.5947 49.0146 35.4779 49.2173 35.4779 49.4487C35.4779 49.6779 35.5947 49.8806 35.771 49.9996C35.8768 50.0723 36.0046 50.112 36.1434 50.112C36.3263 50.112 36.4938 50.037 36.6128 49.9181C36.734 49.7991 36.8067 49.6316 36.8067 49.4487C36.8067 49.2658 36.7318 49.0983 36.6128 48.9771C36.4938 48.8581 36.3285 48.7832 36.1434 48.7832Z" fill="#005840"/>
<path d="M31.7097 48.7832C31.3417 48.7832 31.0443 49.0807 31.0443 49.4487C31.0443 49.8167 31.3417 50.1142 31.7097 50.1142C32.0777 50.1142 32.3752 49.8167 32.3752 49.4487C32.3752 49.0807 32.0777 48.7832 31.7097 48.7832Z" fill="#005840"/>
<path d="M29.4907 51C29.1227 51 28.8252 51.2975 28.8252 51.6655C28.8252 52.0335 29.1227 52.331 29.4907 52.331C29.8565 52.331 30.1562 52.0335 30.1562 51.6655C30.1562 51.2997 29.8587 51.0022 29.4907 51Z" fill="#005840"/>
<path d="M33.9265 51C33.5585 51 33.261 51.2975 33.261 51.6655C33.261 52.0335 33.5585 52.331 33.9265 52.331C34.2945 52.331 34.592 52.0335 34.592 51.6655C34.592 51.2997 34.2945 51.0022 33.9265 51Z" fill="#005840"/>
<path d="M29.4929 46.5664C29.1249 46.5664 28.8275 46.8639 28.8275 47.2319C28.8275 47.5999 29.1249 47.8974 29.4929 47.8974C29.8587 47.8974 30.1584 47.5999 30.1584 47.2319C30.1562 46.8639 29.8587 46.5664 29.4929 46.5664Z" fill="#005840"/>
<path d="M33.9265 46.5664C33.5585 46.5664 33.261 46.8639 33.261 47.2319C33.261 47.5999 33.5585 47.8974 33.9265 47.8974C34.2945 47.8974 34.592 47.5999 34.592 47.2319C34.592 46.8639 34.2945 46.5664 33.9265 46.5664Z" fill="#005840"/>
<path d="M27.2739 26.6084C27.1373 26.6084 27.0095 26.6503 26.9015 26.723C26.7252 26.842 26.6084 27.0447 26.6084 27.2739C26.6084 27.5031 26.7252 27.7058 26.9015 27.8248C27.0073 27.8975 27.1351 27.9394 27.2739 27.9372C27.4568 27.9372 27.6243 27.8622 27.7433 27.7433C27.8645 27.6221 27.9394 27.4568 27.9394 27.2739C27.9394 27.091 27.8645 26.9235 27.7433 26.8023C27.6243 26.6833 27.459 26.6084 27.2739 26.6084Z" fill="#005840"/>
<path d="M27.2739 35.4779C27.1373 35.4779 27.0095 35.5198 26.9015 35.5925C26.7252 35.7115 26.6084 35.9142 26.6084 36.1434C26.6084 36.3726 26.7252 36.5753 26.9015 36.6943C27.0073 36.767 27.1351 36.8089 27.2739 36.8089C27.4568 36.8089 27.6243 36.734 27.7433 36.615C27.8645 36.4938 27.9394 36.3285 27.9394 36.1434C27.9394 35.9605 27.8645 35.793 27.7433 35.6718C27.6243 35.5528 27.459 35.4779 27.2739 35.4779Z" fill="#005840"/>
<path d="M22.8403 35.4779C22.4723 35.4779 22.1748 35.7754 22.1748 36.1434C22.1748 36.5114 22.4723 36.8089 22.8403 36.8089C23.2083 36.8089 23.5058 36.5114 23.5058 36.1434C23.5058 35.7776 23.2061 35.4779 22.8403 35.4779Z" fill="#005840"/>
<path d="M27.2739 31.0443C27.1351 31.0443 27.0095 31.0862 26.9015 31.1567C26.7252 31.2757 26.6084 31.4784 26.6084 31.7076C26.6084 31.9368 26.7252 32.1395 26.9015 32.2585C27.0073 32.3312 27.1351 32.3709 27.2739 32.3731C27.4568 32.3731 27.6243 32.2982 27.7433 32.1792C27.8645 32.058 27.9394 31.8927 27.9372 31.7076C27.9372 31.5225 27.8622 31.3572 27.7433 31.236C27.6243 31.1192 27.4568 31.0443 27.2739 31.0443Z" fill="#005840"/>
<path d="M22.8403 31.0443C22.4723 31.0443 22.1748 31.3418 22.1748 31.7098C22.1748 32.0778 22.4723 32.3753 22.8403 32.3753C23.2083 32.3753 23.5058 32.0778 23.5058 31.7098C23.5058 31.3418 23.2061 31.0443 22.8403 31.0443Z" fill="#005840"/>
<path d="M20.6212 33.2611C20.2532 33.2611 19.9557 33.5586 19.9557 33.9266C19.9557 34.2946 20.2532 34.5921 20.6212 34.5921C20.9892 34.5921 21.2867 34.2946 21.2867 33.9266C21.2867 33.5586 20.9892 33.2611 20.6212 33.2611Z" fill="#005840"/>
<path d="M25.0571 33.2611C24.6891 33.2611 24.3916 33.5586 24.3916 33.9266C24.3916 34.2946 24.6891 34.5921 25.0571 34.5921C25.4251 34.5921 25.7226 34.2946 25.7226 33.9266C25.7226 33.5586 25.4251 33.2611 25.0571 33.2611Z" fill="#005840"/>
<path d="M25.0571 28.8275C24.6891 28.8275 24.3916 29.125 24.3916 29.493C24.3916 29.8588 24.6891 30.1585 25.0571 30.1585C25.4251 30.1585 25.7226 29.861 25.7226 29.493C25.7226 29.125 25.4251 28.8275 25.0571 28.8275Z" fill="#005840"/>
<path d="M27.2739 44.3473C27.1351 44.3473 27.0073 44.3892 26.9015 44.4619C26.7252 44.5809 26.6084 44.7836 26.6084 45.0128C26.6084 45.242 26.7252 45.4447 26.9015 45.5659C27.0073 45.6386 27.1351 45.6805 27.2739 45.6783C27.4568 45.6783 27.6243 45.6033 27.7454 45.4843C27.8644 45.3654 27.9394 45.1979 27.9394 45.015C27.9394 44.8321 27.8644 44.6646 27.7454 44.5434C27.6243 44.4222 27.4568 44.3473 27.2739 44.3473Z" fill="#005840"/>
<path d="M22.8403 44.3473C22.4723 44.3473 22.1748 44.6448 22.1748 45.0128C22.1748 45.3808 22.4723 45.6783 22.8403 45.6783C23.2083 45.6783 23.5058 45.3786 23.5058 45.0128C23.5058 44.647 23.2061 44.3473 22.8403 44.3473Z" fill="#005840"/>
<path d="M27.2739 39.9138C27.1351 39.9138 27.0073 39.9557 26.9015 40.0284C26.7252 40.1474 26.6084 40.3501 26.6084 40.5793C26.6084 40.8085 26.7252 41.0112 26.9015 41.1302C27.0073 41.2029 27.1351 41.2448 27.2739 41.2448C27.4568 41.2448 27.6243 41.1699 27.7433 41.0509C27.8645 40.9297 27.9394 40.7644 27.9394 40.5815C27.9394 40.3986 27.8645 40.2311 27.7433 40.1099C27.6243 39.9887 27.4568 39.9138 27.2739 39.9138Z" fill="#005840"/>
<path d="M22.8403 39.9138C22.4723 39.9138 22.1748 40.2113 22.1748 40.5793C22.1748 40.9473 22.4723 41.2448 22.8403 41.2448C23.2083 41.2448 23.5058 40.9473 23.5058 40.5793C23.5058 40.2113 23.2061 39.9138 22.8403 39.9138Z" fill="#005840"/>
<path d="M20.6212 42.1306C20.2532 42.1306 19.9557 42.4281 19.9557 42.7961C19.9557 43.1641 20.2532 43.4616 20.6212 43.4616C20.9892 43.4616 21.2867 43.1641 21.2867 42.7961C21.2889 42.4281 20.9892 42.1306 20.6212 42.1306Z" fill="#005840"/>
<path d="M25.0571 42.1306C24.6891 42.1306 24.3916 42.4281 24.3916 42.7961C24.3916 43.1641 24.6891 43.4616 25.0571 43.4616C25.4251 43.4616 25.7226 43.1641 25.7226 42.7961C25.7226 42.4281 25.4251 42.1306 25.0571 42.1306Z" fill="#005840"/>
<path d="M20.6212 37.6969C20.2532 37.6969 19.9557 37.9944 19.9557 38.3624C19.9557 38.7282 20.2532 39.0257 20.6212 39.0279C20.9892 39.0279 21.2867 38.7304 21.2867 38.3624C21.2867 37.9944 20.9892 37.6969 20.6212 37.6969Z" fill="#005840"/>
<path d="M25.0571 37.6969C24.6891 37.6969 24.3916 37.9944 24.3916 38.3624C24.3916 38.7282 24.6891 39.0279 25.0571 39.0279C25.4251 39.0279 25.7226 38.7304 25.7226 38.3624C25.7226 37.9944 25.4251 37.6969 25.0571 37.6969Z" fill="#005840"/>
<path d="M27.2739 53.2168C27.1351 53.2168 27.0073 53.2587 26.9015 53.3314C26.7252 53.4504 26.6084 53.6531 26.6084 53.8823C26.6084 54.1115 26.7252 54.3142 26.9015 54.4332C27.0073 54.5059 27.1351 54.5478 27.2739 54.5478C27.4568 54.5478 27.6243 54.4728 27.7433 54.3539C27.8645 54.2327 27.9372 54.0674 27.9394 53.8823C27.9394 53.6994 27.8644 53.5319 27.7454 53.4129C27.6243 53.2939 27.459 53.2168 27.2739 53.2168Z" fill="#005840"/>
<path d="M22.8403 53.219C22.4723 53.219 22.1748 53.5165 22.1748 53.8845C22.1748 54.2525 22.4723 54.55 22.8403 54.55C23.2083 54.55 23.5058 54.2525 23.5058 53.8845C23.5058 53.5165 23.2061 53.2168 22.8403 53.219Z" fill="#005840"/>
<path d="M27.2739 48.7832C27.1351 48.7832 27.0073 48.8251 26.9015 48.8978C26.7252 49.0168 26.6084 49.2195 26.6084 49.4487C26.6084 49.6779 26.7252 49.8806 26.9015 49.9996C27.0073 50.0723 27.1351 50.112 27.2739 50.112C27.4568 50.112 27.6243 50.037 27.7433 49.9181C27.8645 49.7991 27.9394 49.6316 27.9394 49.4487C27.9394 49.2636 27.8645 49.0983 27.7433 48.9771C27.6243 48.8581 27.459 48.7832 27.2739 48.7832Z" fill="#005840"/>
<path d="M22.8403 48.7832C22.4723 48.7832 22.1748 49.0807 22.1748 49.4487C22.1748 49.8167 22.4723 50.1142 22.8403 50.1142C23.2083 50.1142 23.5058 49.8167 23.5058 49.4487C23.5058 49.0807 23.2061 48.7832 22.8403 48.7832Z" fill="#005840"/>
<path d="M20.6212 51C20.2532 51 19.9557 51.2975 19.9557 51.6655C19.9557 52.0335 20.2532 52.331 20.6212 52.331C20.9892 52.331 21.2867 52.0335 21.2867 51.6655C21.2889 51.2997 20.9892 51 20.6212 51Z" fill="#005840"/>
<path d="M25.0571 51C24.6891 51 24.3916 51.2975 24.3916 51.6655C24.3916 52.0335 24.6891 52.331 25.0571 52.331C25.4251 52.331 25.7226 52.0335 25.7226 51.6655C25.7226 51.2997 25.4251 51.0022 25.0571 51Z" fill="#005840"/>
<path d="M20.6234 46.5664C20.2554 46.5664 19.9579 46.8639 19.9579 47.2319C19.9579 47.5999 20.2554 47.8974 20.6234 47.8974C20.9914 47.8974 21.2889 47.5999 21.2889 47.2319C21.2889 46.8639 20.9892 46.5664 20.6234 46.5664Z" fill="#005840"/>
<path d="M25.0571 46.5664C24.6891 46.5664 24.3916 46.8639 24.3916 47.2319C24.3916 47.5999 24.6891 47.8974 25.0571 47.8974C25.4251 47.8974 25.7226 47.5999 25.7226 47.2319C25.7226 46.8639 25.4251 46.5664 25.0571 46.5664Z" fill="#005840"/>
<path d="M18.4044 35.4779C18.2656 35.4779 18.1378 35.5198 18.032 35.5925C17.8557 35.7115 17.739 35.9142 17.739 36.1434C17.739 36.3726 17.8557 36.5753 18.032 36.6943C18.1378 36.767 18.2656 36.8089 18.4044 36.8089C18.5873 36.8089 18.7526 36.734 18.8738 36.615C18.995 36.4938 19.0699 36.3285 19.0699 36.1434C19.0699 35.9605 18.995 35.793 18.8738 35.6718C18.7548 35.5528 18.5895 35.4779 18.4044 35.4779Z" fill="#005840"/>
<path d="M18.4044 44.3473C18.2656 44.3473 18.1378 44.3892 18.032 44.4619C17.8557 44.5809 17.739 44.7836 17.739 45.0128C17.739 45.242 17.8557 45.4447 18.032 45.5659C18.1378 45.6386 18.2656 45.6783 18.4044 45.6805C18.5873 45.6805 18.7548 45.6055 18.8738 45.4865C18.995 45.3654 19.0699 45.2001 19.0677 45.015C19.0677 44.8321 18.9928 44.6646 18.8738 44.5434C18.7548 44.4222 18.5895 44.3473 18.4044 44.3473Z" fill="#005840"/>
<path d="M13.9708 44.3473C13.6028 44.3473 13.3053 44.6448 13.3053 45.0128C13.3053 45.3808 13.6028 45.6783 13.9708 45.6783C14.3388 45.6783 14.6363 45.3786 14.6363 45.0128C14.6363 44.647 14.3366 44.3473 13.9708 44.3473Z" fill="#005840"/>
<path d="M18.4044 39.9138C18.2656 39.9138 18.1378 39.9557 18.032 40.0284C17.8557 40.1474 17.739 40.3501 17.739 40.5793C17.739 40.8085 17.8557 41.0112 18.032 41.1302C18.1378 41.2029 18.2656 41.2426 18.4044 41.2426C18.5873 41.2426 18.7526 41.1677 18.8738 41.0487C18.995 40.9275 19.0699 40.7622 19.0699 40.5771C19.0699 40.3942 18.995 40.2267 18.8738 40.1077C18.7548 39.9887 18.5895 39.9138 18.4044 39.9138Z" fill="#005840"/>
<path d="M13.9708 39.9138C13.6028 39.9138 13.3053 40.2113 13.3053 40.5793C13.3053 40.9473 13.6028 41.2448 13.9708 41.2448C14.3388 41.2448 14.6363 40.9473 14.6363 40.5793C14.6363 40.2113 14.3366 39.9138 13.9708 39.9138Z" fill="#005840"/>
<path d="M11.7518 42.1306C11.3838 42.1306 11.0863 42.4281 11.0863 42.7961C11.0863 43.1641 11.3838 43.4616 11.7518 43.4616C12.1198 43.4616 12.4173 43.1641 12.4173 42.7961C12.4173 42.4281 12.1198 42.1306 11.7518 42.1306Z" fill="#005840"/>
<path d="M16.1876 42.1306C15.8196 42.1306 15.5221 42.4281 15.5221 42.7961C15.5221 43.1641 15.8196 43.4616 16.1876 43.4616C16.5534 43.4616 16.8531 43.1641 16.8531 42.7961C16.8531 42.4281 16.5534 42.1306 16.1876 42.1306Z" fill="#005840"/>
<path d="M16.1876 37.6969C15.8196 37.6969 15.5221 37.9944 15.5221 38.3624C15.5221 38.7282 15.8196 39.0279 16.1876 39.0279C16.5534 39.0279 16.8531 38.7304 16.8531 38.3624C16.8531 37.9944 16.5534 37.6969 16.1876 37.6969Z" fill="#005840"/>
<path d="M18.4044 53.219C18.2656 53.219 18.1378 53.2609 18.032 53.3314C17.8557 53.4504 17.739 53.6532 17.739 53.8823C17.739 54.1115 17.8557 54.3142 18.032 54.4332C18.1378 54.5059 18.2656 54.5478 18.4044 54.5478C18.5873 54.5478 18.7548 54.4729 18.8738 54.3539C18.995 54.2327 19.0699 54.0674 19.0699 53.8823C19.0699 53.6994 18.995 53.532 18.876 53.413C18.7548 53.294 18.5895 53.2168 18.4044 53.219Z" fill="#005840"/>
<path d="M13.9708 53.219C13.6028 53.219 13.3053 53.5165 13.3053 53.8823C13.3053 54.2503 13.6028 54.5478 13.9708 54.5478C14.3388 54.5478 14.6363 54.2503 14.6363 53.8823C14.6363 53.5165 14.3366 53.2168 13.9708 53.219Z" fill="#005840"/>
<path d="M18.4044 48.7832C18.2656 48.7832 18.1378 48.8251 18.032 48.8978C17.8557 49.0168 17.739 49.2195 17.739 49.4487C17.739 49.6779 17.8557 49.8806 18.032 49.9996C18.1378 50.0701 18.2656 50.112 18.4044 50.112C18.5873 50.112 18.7526 50.037 18.8738 49.9181C18.995 49.7969 19.0699 49.6316 19.0699 49.4487C19.0699 49.2658 18.995 49.0983 18.8738 48.9771C18.7548 48.8581 18.5895 48.7832 18.4044 48.7832Z" fill="#005840"/>
<path d="M13.9708 48.7832C13.6028 48.7832 13.3053 49.0807 13.3053 49.4487C13.3053 49.8167 13.6028 50.1142 13.9708 50.1142C14.3388 50.1142 14.6363 49.8167 14.6363 49.4487C14.6363 49.0807 14.3366 48.7832 13.9708 48.7832Z" fill="#005840"/>
<path d="M11.7518 51C11.3838 51 11.0863 51.2975 11.0863 51.6655C11.0863 52.0335 11.3838 52.331 11.7518 52.331C12.1198 52.331 12.4173 52.0335 12.4173 51.6655C12.4173 51.2997 12.1198 51 11.7518 51Z" fill="#005840"/>
<path d="M16.1876 51.0022C15.8196 51.0022 15.5221 51.2997 15.5221 51.6677C15.5221 52.0357 15.8196 52.3332 16.1876 52.3332C16.5534 52.3332 16.8531 52.0357 16.8531 51.6677C16.8531 51.2997 16.5534 51.0022 16.1876 51.0022Z" fill="#005840"/>
<path d="M11.7518 46.5664C11.3838 46.5664 11.0863 46.8639 11.0863 47.2319C11.0863 47.5999 11.3838 47.8974 11.7518 47.8974C12.1198 47.8974 12.4173 47.5999 12.4173 47.2319C12.4173 46.8639 12.1198 46.5664 11.7518 46.5664Z" fill="#005840"/>
<path d="M16.1876 46.5664C15.8196 46.5664 15.5221 46.8639 15.5221 47.2319C15.5221 47.5999 15.8196 47.8974 16.1876 47.8974C16.5534 47.8974 16.8531 47.5999 16.8531 47.2319C16.8531 46.8639 16.5556 46.5664 16.1876 46.5664Z" fill="#005840"/>
<path d="M9.53493 44.3473C9.16693 44.3473 8.86945 44.6448 8.86945 45.0128C8.86945 45.3808 9.16693 45.6783 9.53493 45.6783C9.85665 45.6783 10.1255 45.4491 10.1872 45.1472C10.196 45.1031 10.2004 45.0591 10.2004 45.0128C10.2004 44.9665 10.196 44.9224 10.1872 44.8784C10.1255 44.5765 9.85665 44.3473 9.53493 44.3473Z" fill="#005840"/>
<path d="M9.53493 53.219C9.16693 53.219 8.86945 53.5165 8.86945 53.8845C8.86945 54.2525 9.16693 54.55 9.53493 54.55C9.85665 54.55 10.1233 54.3208 10.1872 54.0189C10.196 53.977 10.2004 53.9308 10.2004 53.8845C10.2004 53.8382 10.196 53.7941 10.1872 53.7501C10.1255 53.446 9.85665 53.219 9.53493 53.219Z" fill="#005840"/>
<path d="M5.10134 53.219C4.73334 53.219 4.43585 53.5165 4.43585 53.8845C4.43585 54.2525 4.73334 54.55 5.10134 54.55C5.46934 54.55 5.76682 54.2525 5.76682 53.8845C5.76682 53.5165 5.46713 53.219 5.10134 53.219Z" fill="#005840"/>
<path d="M9.53493 48.7832C9.16693 48.7832 8.86945 49.0807 8.86945 49.4487C8.86945 49.8167 9.16693 50.1142 9.53493 50.1142C9.85665 50.1142 10.1233 49.8872 10.1872 49.5831C10.196 49.539 10.2004 49.495 10.2004 49.4487C10.2004 49.4024 10.196 49.3583 10.1872 49.3143C10.1255 49.0102 9.85665 48.7832 9.53493 48.7832Z" fill="#005840"/>
<path d="M5.10134 48.7832C4.73334 48.7832 4.43585 49.0807 4.43585 49.4487C4.43585 49.8167 4.73334 50.1142 5.10134 50.1142C5.46934 50.1142 5.76682 49.8167 5.76682 49.4487C5.76682 49.0807 5.46713 48.7832 5.10134 48.7832Z" fill="#005840"/>
<path d="M2.88228 51C2.51428 51 2.2168 51.2975 2.2168 51.6655C2.2168 52.0335 2.51428 52.331 2.88228 52.331C3.25028 52.331 3.54777 52.0335 3.54777 51.6655C3.54777 51.2997 3.25028 51 2.88228 51Z" fill="#005840"/>
<path d="M7.31813 51.0022C6.95013 51.0022 6.65265 51.2997 6.65265 51.6677C6.65265 52.0357 6.95013 52.3332 7.31813 52.3332C7.68393 52.3332 7.98362 52.0357 7.98362 51.6677C7.98362 51.2997 7.68393 51.0022 7.31813 51.0022Z" fill="#005840"/>
<path d="M7.31813 46.5664C6.95013 46.5664 6.65265 46.8639 6.65265 47.2297C6.65265 47.5977 6.95013 47.8952 7.31813 47.8952C7.68393 47.8952 7.98362 47.5977 7.98362 47.2297C7.98362 46.8639 7.68613 46.5664 7.31813 46.5664Z" fill="#005840"/>
<path d="M0.665483 53.2168C0.526657 53.2168 0.398848 53.2587 0.293075 53.3314C0.116788 53.4504 0 53.6531 0 53.8823C0 54.1115 0.116788 54.3142 0.293075 54.4332C0.398848 54.5059 0.528861 54.5478 0.665483 54.5478C1.03348 54.5478 1.33097 54.2503 1.33097 53.8823C1.33097 53.5165 1.03348 53.2168 0.665483 53.2168Z" fill="#005840"/>
</svg>
