<svg width="670" height="481" viewBox="0 0 670 481" fill="none" xmlns="http://www.w3.org/2000/svg">
<g clip-path="url(#clip0_2_78)">
<path d="M934.204 306.65C934.204 306.65 824.938 344.066 676.695 244.864C561.906 168.055 484.537 185.967 394.671 306.393C304.794 426.807 267.397 498.327 114.637 449.294" stroke="white" stroke-miterlimit="10"/>
<path d="M933.841 304.135C933.841 304.135 823.405 338.38 675.548 244.279C560.817 171.261 484.478 193.186 393.302 310.628C302.126 428.082 266.414 496.058 114.087 448.72" stroke="#F9F9F9" stroke-miterlimit="10"/>
<path d="M933.479 301.631C933.479 301.631 821.837 332.694 674.401 243.694C559.717 174.455 484.432 200.393 391.933 314.875C299.447 429.357 265.431 493.788 113.525 448.159" stroke="#F3F3F3" stroke-miterlimit="10"/>
<path d="M933.104 299.127C933.104 299.127 820.234 327.02 673.255 243.109C558.594 177.661 484.373 207.6 390.576 319.122C296.779 430.633 264.448 491.518 112.987 447.597" stroke="#ECECEC" stroke-miterlimit="10"/>
<path d="M932.742 296.612C932.742 296.612 818.619 321.334 672.108 242.524C557.447 180.843 484.315 214.819 389.207 323.369C294.099 431.92 263.465 489.248 112.437 447.036" stroke="#E6E6E6" stroke-miterlimit="10"/>
<path d="M932.379 294.108C932.379 294.108 816.969 315.659 670.973 241.939C556.301 184.037 484.268 222.026 387.85 327.605C291.431 433.183 262.494 486.967 111.887 446.451" stroke="#E0E0E0" stroke-miterlimit="10"/>
<path d="M932.016 291.593C932.016 291.593 815.296 309.973 669.826 241.354C555.107 187.231 484.209 229.233 386.481 331.852C288.752 434.47 261.511 484.697 111.326 445.889" stroke="#DADADA" stroke-miterlimit="10"/>
<path d="M931.653 289.089C931.653 289.089 813.588 304.31 668.68 240.769C553.89 190.425 484.163 236.452 385.123 336.099C286.084 435.745 260.528 482.427 110.787 445.327" stroke="#D3D3D3" stroke-miterlimit="10"/>
<path d="M931.279 286.585C931.279 286.585 811.833 298.659 667.533 240.196C552.65 193.642 484.104 243.671 383.754 340.357C283.404 437.021 259.545 480.158 110.237 444.754" stroke="#CDCDCD" stroke-miterlimit="10"/>
<path d="M930.916 284.07C930.916 284.07 810.054 293.02 666.386 239.599C551.374 196.837 484.045 250.878 382.385 344.581C280.725 438.296 258.562 477.888 109.676 444.193" stroke="#C7C7C7" stroke-miterlimit="10"/>
<path d="M930.553 281.566C930.553 281.566 808.252 287.404 665.251 239.014C550.087 200.054 483.999 258.085 381.039 348.828C278.068 439.571 257.591 475.618 109.138 443.619" stroke="#C1C1C1" stroke-miterlimit="10"/>
<path d="M930.191 279.051C930.191 279.051 806.427 281.788 664.104 238.429C548.777 203.283 483.952 265.292 379.67 353.075C275.389 440.858 256.608 473.348 108.588 443.058" stroke="#BBBBBB" stroke-miterlimit="10"/>
<path d="M929.828 276.547C929.828 276.547 804.554 276.219 662.969 237.844C547.443 206.536 483.905 272.51 378.313 357.322C272.733 442.133 255.637 471.079 108.038 442.496" stroke="#B4B4B4" stroke-miterlimit="10"/>
<path d="M929.465 274.043C929.465 274.043 802.659 270.674 661.823 237.271C546.062 209.812 483.847 279.729 376.944 361.569C270.053 443.409 254.643 468.809 107.488 441.935" stroke="#AEAEAE" stroke-miterlimit="10"/>
<path d="M929.091 271.528C929.091 271.528 800.728 265.151 660.664 236.674C544.658 213.087 483.776 286.925 375.575 365.804C267.373 444.684 253.66 466.527 106.926 441.361" stroke="#A8A8A8" stroke-miterlimit="10"/>
<path d="M928.728 269.024C928.728 269.024 798.774 259.676 659.529 236.089C543.266 216.399 483.73 294.143 374.218 370.051C264.706 445.959 252.688 464.258 106.388 440.788" stroke="#A2A2A2" stroke-miterlimit="10"/>
<path d="M928.365 266.52C928.365 266.52 796.808 254.235 658.382 235.516C541.826 219.745 483.683 301.362 372.849 374.298C262.026 447.235 251.694 461.988 105.826 440.226" stroke="#9B9B9B" stroke-miterlimit="10"/>
<path d="M928.003 264.005C928.003 264.005 794.819 248.83 657.247 234.919C540.387 223.102 483.636 308.557 371.491 378.534C259.358 448.51 250.723 459.706 105.288 439.653" stroke="#959595" stroke-miterlimit="10"/>
<path d="M927.64 261.501C927.64 261.501 792.818 243.472 656.101 234.346C538.924 226.519 483.577 315.788 370.134 382.792C256.69 449.797 249.751 457.448 104.738 439.103" stroke="#8F8F8F" stroke-miterlimit="10"/>
<path d="M927.265 258.986C927.265 258.986 790.782 238.148 654.942 233.749C537.45 229.947 483.507 322.983 368.753 387.028C253.999 451.072 248.745 455.167 104.176 438.53" stroke="#898989" stroke-miterlimit="10"/>
<path d="M926.903 256.482C926.903 256.482 788.769 232.872 653.807 233.176C535.976 233.433 483.46 330.202 367.396 391.286C251.331 452.359 247.774 452.909 103.626 437.968" stroke="#838383" stroke-miterlimit="10"/>
<path d="M926.54 253.978C926.54 253.978 786.733 227.654 652.661 232.591C534.501 236.943 483.414 337.421 366.027 395.522C248.652 453.623 246.791 450.639 103.076 437.395" stroke="#7C7C7C" stroke-miterlimit="10"/>
<path d="M926.177 251.463C926.177 251.463 784.721 222.459 651.525 231.994C533.027 240.488 483.367 344.616 364.681 399.757C245.995 454.898 245.82 448.358 102.538 436.822" stroke="#767676" stroke-miterlimit="10"/>
<path d="M925.814 248.959C925.814 248.959 782.696 217.311 650.379 231.421C531.564 244.092 483.308 351.846 363.312 404.016C243.316 456.185 244.837 446.1 101.988 436.272" stroke="#707070" stroke-miterlimit="10"/>
<path d="M925.452 246.443C925.452 246.443 780.696 212.198 649.244 230.824C530.113 247.707 483.262 359.042 361.955 408.239C240.648 457.46 243.854 443.818 101.438 435.699" stroke="#6A6A6A" stroke-miterlimit="10"/>
<path d="M925.077 243.94C925.077 243.94 778.695 207.144 648.085 230.251C528.651 251.381 483.191 366.261 360.574 412.498C237.957 458.735 242.871 441.548 100.876 435.125" stroke="#646464" stroke-miterlimit="10"/>
<path d="M924.715 241.436C924.715 241.436 776.717 202.113 646.939 229.666C527.223 255.078 483.145 373.468 359.217 416.745C235.289 460.011 241.888 439.279 100.326 434.564" stroke="#5D5D5D" stroke-miterlimit="10"/>
<path d="M924.352 238.921C924.352 238.921 774.775 197.106 645.804 229.081C525.819 258.822 483.098 380.686 357.859 420.992C232.621 461.298 240.917 437.009 99.7882 434.002" stroke="#575757" stroke-miterlimit="10"/>
<path d="M923.989 236.417C923.989 236.417 772.844 192.145 644.657 228.496C524.427 262.589 483.039 387.893 356.49 425.227C229.941 462.561 239.934 434.727 99.2266 433.429" stroke="#515151" stroke-miterlimit="10"/>
<path d="M923.626 233.913C923.626 233.913 770.948 187.208 643.522 227.911C523.069 266.38 482.981 395.1 355.133 429.474C227.285 463.848 238.951 432.458 98.6883 432.867" stroke="#4B4B4B" stroke-miterlimit="10"/>
<path d="M923.252 231.398C923.252 231.398 769.064 182.282 642.363 227.326C521.735 270.206 482.922 402.319 353.764 433.721C224.605 465.123 237.968 430.188 98.1266 432.294" stroke="#444444" stroke-miterlimit="10"/>
<path d="M922.889 228.894C922.889 228.894 767.227 177.392 641.217 226.741C520.425 274.043 482.875 409.526 352.395 437.968C221.926 466.399 236.985 427.918 97.5767 431.732" stroke="#3E3E3E" stroke-miterlimit="10"/>
<path d="M922.526 226.378C922.526 226.378 765.425 172.501 640.082 226.156C519.161 277.904 482.829 416.745 351.037 442.204C219.258 467.674 236.002 425.637 97.0267 431.159" stroke="#383838" stroke-miterlimit="10"/>
<path d="M922.164 223.875C922.164 223.875 763.647 167.634 638.935 225.571C517.921 281.788 482.77 423.952 349.68 446.451C216.59 468.949 235.031 423.379 96.4885 430.597" stroke="#323232" stroke-miterlimit="10"/>
<path d="M921.801 221.371C921.801 221.371 761.903 162.779 637.8 224.986C516.715 285.684 482.723 431.171 348.323 450.698C213.922 470.225 234.06 421.109 95.9385 430.024" stroke="#2C2C2C" stroke-miterlimit="10"/>
<path d="M921.438 218.855C921.438 218.855 760.195 157.911 636.653 224.401C515.534 289.592 482.665 438.378 346.954 454.945C211.243 471.5 233.065 418.828 95.3769 429.463" stroke="#252525" stroke-miterlimit="10"/>
<path d="M921.064 216.352C921.064 216.352 758.51 153.056 635.495 223.816C514.387 293.5 482.618 445.585 345.585 459.192C208.563 472.787 232.083 416.569 94.8269 428.901" stroke="#1F1F1F" stroke-miterlimit="10"/>
<path d="M920.701 213.836C920.701 213.836 756.86 148.189 634.36 223.231C513.264 297.408 482.559 452.804 344.227 463.427C205.895 474.05 231.111 414.288 94.2887 428.328" stroke="#191919" stroke-miterlimit="10"/>
<path d="M920.338 211.333C920.338 211.333 755.234 143.334 633.213 222.646C512.164 301.327 482.501 460.011 342.858 467.674C203.216 475.337 230.117 412.018 93.727 427.766" stroke="#131313" stroke-miterlimit="10"/>
<path d="M919.975 208.829C919.975 208.829 753.642 138.478 632.078 222.073C511.11 305.258 482.454 467.229 341.501 471.933C200.548 476.624 229.146 409.76 93.1887 427.205" stroke="#0C0C0C" stroke-miterlimit="10"/>
<path d="M919.613 206.313C919.613 206.313 752.074 133.599 630.931 221.476C510.057 309.154 482.396 474.436 340.132 476.156C197.868 477.888 228.163 407.467 92.6271 426.62" stroke="#060606" stroke-miterlimit="10"/>
<path d="M919.25 203.81C919.25 203.81 750.53 128.721 629.784 220.891C509.039 313.062 482.349 481.643 338.775 480.403C195.2 479.163 227.18 405.197 92.0888 426.058" stroke="#215FF6" stroke-miterlimit="10"/>
<g opacity="0.3">
<path d="M917.682 281.999C917.682 281.999 750.53 285.86 660.898 188.717C571.267 91.5739 486.702 55.2345 377.974 202.429C269.234 349.612 166.93 433.242 0.351036 306.674" stroke="white" stroke-miterlimit="10"/>
<path d="M2.82 309.189C165.327 432.668 264.308 345.107 374.803 201.528C485.298 57.9488 568.224 99.4712 661.799 190.952C755.374 282.432 919.273 274.371 921.859 275.248" stroke="#F9F9F9" stroke-miterlimit="10"/>
<path d="M5.28896 311.705C163.736 432.095 259.393 340.603 371.643 200.627C483.893 60.6515 565.182 107.38 662.712 193.186C760.242 278.992 920.865 266.731 926.037 268.497" stroke="#F3F3F3" stroke-miterlimit="10"/>
<path d="M7.74622 314.22C162.132 431.522 254.467 336.099 368.472 199.726C482.478 63.3658 562.14 115.278 663.601 195.421C765.074 275.564 922.444 259.103 930.191 261.747" stroke="#ECECEC" stroke-miterlimit="10"/>
<path d="M10.2152 316.736C160.541 430.948 249.553 331.583 365.313 198.837C481.073 66.0802 559.097 123.198 664.514 197.667C769.93 272.136 924.036 251.474 934.368 255.008" stroke="#E6E6E6" stroke-miterlimit="10"/>
<path d="M12.6842 319.251C158.95 430.387 244.626 327.078 362.154 197.936C479.681 68.7945 556.055 131.096 665.427 199.914C774.786 268.72 925.639 243.846 938.557 248.269" stroke="#E0E0E0" stroke-miterlimit="10"/>
<path d="M15.1414 321.766C157.335 429.814 239.7 322.574 358.983 197.035C478.265 71.4971 553.013 139.005 666.328 202.148C779.642 265.292 927.219 236.218 942.723 241.518" stroke="#DADADA" stroke-miterlimit="10"/>
<path d="M17.6104 324.282C155.744 429.24 234.786 318.069 355.823 196.146C476.861 74.2232 549.97 146.914 667.229 204.395C784.487 261.864 928.81 228.59 946.888 234.779" stroke="#D3D3D3" stroke-miterlimit="10"/>
<path d="M20.0793 326.797C154.152 428.667 229.871 313.565 352.664 195.245C475.457 76.9375 546.94 154.823 668.141 206.629C789.343 258.436 930.413 220.961 951.066 228.028" stroke="#CDCDCD" stroke-miterlimit="10"/>
<path d="M22.5366 329.313C152.549 428.094 224.933 309.06 349.493 194.356C474.041 79.6519 543.886 162.732 669.042 208.876C794.199 255.019 931.993 213.333 955.243 221.289" stroke="#C7C7C7" stroke-miterlimit="10"/>
<path d="M25.0056 331.828C150.958 427.52 220.019 304.556 346.334 193.455C472.649 82.3545 540.855 170.629 669.955 211.11C799.055 251.58 933.596 205.693 959.42 214.527" stroke="#C1C1C1" stroke-miterlimit="10"/>
<path d="M27.4745 334.344C149.355 426.959 215.104 300.052 343.174 192.554C471.244 85.0689 537.813 178.538 670.856 213.345C803.899 248.152 935.175 198.065 963.586 207.776" stroke="#BBBBBB" stroke-miterlimit="10"/>
<path d="M29.9435 336.859C147.763 426.386 210.19 295.536 340.015 191.665C469.84 87.7832 534.782 186.447 671.769 215.591C808.755 244.735 936.778 190.437 967.775 201.037" stroke="#B4B4B4" stroke-miterlimit="10"/>
<path d="M32.4008 339.375C146.16 425.812 205.263 291.031 336.844 190.764C468.424 90.4975 531.728 194.356 672.67 217.826C813.611 241.296 938.358 182.809 971.941 194.286" stroke="#AEAEAE" stroke-miterlimit="10"/>
<path d="M34.8697 341.89C144.569 425.239 200.337 286.527 333.684 189.863C467.032 93.2002 528.698 202.254 673.582 220.061C818.467 237.868 939.961 175.169 976.118 187.535" stroke="#A8A8A8" stroke-miterlimit="10"/>
<path d="M37.3387 344.405C142.978 424.666 195.423 282.022 330.525 188.974C465.628 95.9145 525.655 210.163 674.483 222.307C823.312 234.451 941.541 167.552 980.284 180.796" stroke="#A2A2A2" stroke-miterlimit="10"/>
<path d="M39.7959 346.921C141.363 424.092 190.496 277.518 327.354 188.073C464.212 98.6289 522.613 218.072 675.384 224.542C828.168 231.012 943.132 159.912 984.461 174.045" stroke="#9B9B9B" stroke-miterlimit="10"/>
<path d="M42.2649 349.448C139.771 423.531 185.582 273.014 324.195 187.184C462.808 101.343 519.57 225.981 676.297 226.788C833.023 227.595 944.724 152.284 988.638 167.306" stroke="#959595" stroke-miterlimit="10"/>
<path d="M44.7339 351.963C138.18 422.958 180.656 268.521 321.035 186.295C461.404 104.069 516.54 233.901 677.21 229.034C837.88 224.179 946.327 144.667 992.816 160.567" stroke="#8F8F8F" stroke-miterlimit="10"/>
<path d="M47.1911 354.467C136.577 422.384 175.729 264.005 317.864 185.382C459.999 106.76 513.486 241.787 678.099 231.257C842.712 220.727 947.895 137.016 996.97 153.805" stroke="#898989" stroke-miterlimit="10"/>
<path d="M49.6601 356.983C134.986 421.811 170.815 259.5 314.705 184.482C458.595 109.474 510.455 249.684 679.012 233.492C847.58 217.299 949.498 129.387 1001.16 147.054" stroke="#838383" stroke-miterlimit="10"/>
<path d="M52.1291 359.51C133.383 421.249 165.9 254.996 311.546 183.604C457.191 112.201 507.413 257.617 679.924 235.75C852.436 213.883 951.101 121.771 1005.34 140.327" stroke="#7C7C7C" stroke-miterlimit="10"/>
<path d="M54.598 362.025C131.791 420.676 160.974 250.492 308.386 182.703C455.787 114.915 504.382 265.514 680.837 237.985C857.292 210.455 952.692 114.143 1009.51 133.576" stroke="#767676" stroke-miterlimit="10"/>
<path d="M57.0553 364.541C130.188 420.103 156.048 245.987 305.215 181.802C454.383 117.618 501.328 273.423 681.738 240.231C862.136 207.027 954.272 106.514 1013.68 126.825" stroke="#707070" stroke-miterlimit="10"/>
<path d="M59.5242 367.056C128.597 419.53 151.133 241.483 302.056 180.913C452.979 120.344 498.298 281.332 682.639 242.477C866.992 203.611 955.863 98.8863 1017.86 120.086" stroke="#6A6A6A" stroke-miterlimit="10"/>
<path d="M61.9932 369.572C126.994 418.968 146.219 236.978 298.897 180.012C451.575 123.046 495.255 289.229 683.552 244.712C871.837 200.183 957.455 91.2463 1022.02 113.335" stroke="#646464" stroke-miterlimit="10"/>
<path d="M64.4505 372.087C125.391 418.395 141.281 232.474 295.726 179.123C450.159 125.772 492.213 297.15 684.453 246.958C876.693 196.755 959.046 83.6181 1026.2 106.585" stroke="#5D5D5D" stroke-miterlimit="10"/>
<path d="M66.9194 374.602C123.799 417.821 136.366 227.97 292.566 178.222C448.755 128.475 489.171 305.047 685.354 249.193C881.549 193.327 960.637 75.9898 1030.38 99.8456" stroke="#575757" stroke-miterlimit="10"/>
<path d="M69.3884 377.118C122.208 417.248 131.452 223.465 289.407 177.321C447.362 131.189 486.128 312.957 686.266 251.428C886.405 189.899 962.229 68.3616 1034.55 93.0949" stroke="#515151" stroke-miterlimit="10"/>
<path d="M71.8457 379.633C120.605 416.675 126.526 218.949 286.236 176.432C445.946 133.904 483.086 320.866 687.167 253.674C891.249 186.471 963.82 60.7334 1038.72 86.3441" stroke="#4B4B4B" stroke-miterlimit="10"/>
<path d="M74.3146 382.149C119.002 416.101 121.611 214.445 283.077 175.531C444.542 136.618 480.044 328.763 688.08 255.909C896.105 183.043 965.411 53.1051 1042.9 79.6051" stroke="#444444" stroke-miterlimit="10"/>
<path d="M76.7836 384.664C117.41 415.54 116.685 209.94 279.917 174.63C443.138 139.321 477.013 336.672 688.993 258.143C900.973 179.615 967.014 45.4652 1047.09 72.8543" stroke="#3E3E3E" stroke-miterlimit="10"/>
<path d="M79.2408 387.18C115.807 414.967 111.759 205.436 276.746 173.741C441.734 142.035 473.959 344.581 689.882 260.39C905.805 176.186 968.594 37.837 1051.24 66.1036" stroke="#383838" stroke-miterlimit="10"/>
<path d="M81.7098 389.695C114.216 414.393 106.844 200.931 273.587 172.84C440.33 144.749 470.928 352.49 690.795 262.624C910.661 172.758 970.185 30.2087 1055.42 59.3645" stroke="#323232" stroke-miterlimit="10"/>
<path d="M84.1788 392.211C112.613 413.82 101.918 196.427 270.416 171.939C438.914 147.452 467.874 360.387 691.696 264.859C915.517 169.33 971.777 22.5805 1059.59 52.6137" stroke="#2C2C2C" stroke-miterlimit="10"/>
<path d="M86.6477 394.726C111.021 413.247 97.0033 191.911 267.256 171.05C437.51 150.178 464.844 368.296 692.609 267.105C920.362 165.902 973.368 14.9523 1063.76 45.863" stroke="#252525" stroke-miterlimit="10"/>
<path d="M89.105 397.242C109.418 412.673 92.0771 187.418 264.097 170.149C436.105 152.881 461.801 376.205 693.51 269.34C925.218 162.474 974.96 7.32403 1067.94 39.1239" stroke="#1F1F1F" stroke-miterlimit="10"/>
<path d="M91.574 399.757C107.827 412.1 87.1626 182.902 260.938 169.249C434.713 155.595 458.771 384.103 694.422 271.575C930.074 159.046 976.551 -0.3159 1072.12 32.3732" stroke="#191919" stroke-miterlimit="10"/>
<path d="M94.0429 402.272C106.236 411.527 82.2481 178.398 257.778 168.359C433.309 158.309 455.728 392.023 695.335 273.821C934.93 155.618 978.142 -7.94414 1076.29 25.6224" stroke="#131313" stroke-miterlimit="10"/>
<path d="M96.5002 404.788C104.621 410.965 77.3101 173.893 254.596 167.458C431.881 161.024 452.674 399.921 696.224 276.056C939.774 152.202 979.734 -15.5724 1080.46 18.8834" stroke="#0C0C0C" stroke-miterlimit="10"/>
<path d="M98.9691 407.303C103.029 410.392 72.3956 169.389 251.448 166.569C430.489 163.738 449.644 407.83 697.137 278.302C944.63 148.774 981.325 -23.2006 1084.64 12.1327" stroke="#060606" stroke-miterlimit="10"/>
<path d="M101.438 409.819C101.438 409.819 67.4811 164.885 248.277 165.668C429.085 166.452 446.602 415.739 698.038 280.537C949.486 145.346 982.917 -30.8288 1088.81 5.38188" stroke="#215FF6" stroke-miterlimit="10"/>
</g>
</g>
<defs>
<clipPath id="clip0_2_78">
<rect width="1089" height="481" fill="white"/>
</clipPath>
</defs>
</svg>
